<?xml version="1.0" encoding="UTF-8"?>
<svg width="700pt" height="700pt" version="1.1" viewBox="0 0 700 700" xmlns="http://www.w3.org/2000/svg" xmlns:xlink="http://www.w3.org/1999/xlink">
 <defs>
  <symbol id="l" overflow="visible">
   <path d="m3.6562-0.21875c-0.1875 0.09375-0.38672 0.16797-0.59375 0.21875-0.19922 0.050781-0.40625 0.078125-0.625 0.078125-0.66797 0-1.1992-0.17969-1.5938-0.54688-0.38672-0.375-0.57812-0.87891-0.57812-1.5156 0-0.64453 0.19141-1.1484 0.57812-1.5156 0.39453-0.375 0.92578-0.5625 1.5938-0.5625 0.21875 0 0.42578 0.027344 0.625 0.078125 0.20703 0.054687 0.40625 0.125 0.59375 0.21875v0.82812c-0.1875-0.125-0.375-0.21875-0.5625-0.28125-0.17969-0.0625-0.37109-0.09375-0.57812-0.09375-0.36719 0-0.65625 0.12109-0.875 0.35938-0.21094 0.23047-0.3125 0.55469-0.3125 0.96875 0 0.40625 0.10156 0.73047 0.3125 0.96875 0.21875 0.23047 0.50781 0.34375 0.875 0.34375 0.20703 0 0.39844-0.023437 0.57812-0.078125 0.1875-0.0625 0.375-0.16016 0.5625-0.29688z"/>
  </symbol>
  <symbol id="c" overflow="visible">
   <path d="m2.6875-2.1719c-0.085938-0.039063-0.16797-0.070313-0.25-0.09375-0.085938-0.019531-0.16797-0.03125-0.25-0.03125-0.25 0-0.44531 0.085937-0.57812 0.25-0.125 0.15625-0.1875 0.38281-0.1875 0.67188v1.375h-0.96875v-2.9844h0.96875v0.48438c0.11328-0.19531 0.25-0.33594 0.40625-0.42188 0.16406-0.09375 0.35938-0.14062 0.57812-0.14062h0.10938c0.039063 0 0.09375 0.007812 0.15625 0.015625z"/>
  </symbol>
  <symbol id="b" overflow="visible">
   <path d="m3.4375-1.5v0.26562h-2.2344c0.03125 0.23047 0.11328 0.40234 0.25 0.51562 0.13281 0.10547 0.32812 0.15625 0.57812 0.15625 0.20703 0 0.41406-0.023438 0.625-0.078125 0.20703-0.0625 0.42188-0.15625 0.64062-0.28125v0.73438c-0.21875 0.09375-0.44531 0.16406-0.67188 0.20312-0.23047 0.039062-0.45312 0.0625-0.67188 0.0625-0.54297 0-0.96484-0.13281-1.2656-0.40625-0.30469-0.28125-0.45312-0.67188-0.45312-1.1719 0-0.47656 0.14453-0.85938 0.4375-1.1406 0.30078-0.28125 0.70703-0.42188 1.2188-0.42188 0.46875 0 0.84375 0.14062 1.125 0.42188s0.42188 0.66406 0.42188 1.1406zm-0.96875-0.32812c0-0.17578-0.058594-0.31641-0.17188-0.42188-0.10547-0.11328-0.24219-0.17188-0.40625-0.17188-0.1875 0-0.33984 0.054687-0.45312 0.15625-0.11719 0.10547-0.1875 0.25-0.21875 0.4375z"/>
  </symbol>
  <symbol id="j" overflow="visible">
   <path d="m1.7969-1.3438c-0.19922 0-0.35156 0.039062-0.45312 0.10938-0.09375 0.0625-0.14062 0.16406-0.14062 0.29688 0 0.11719 0.035156 0.21094 0.10938 0.28125 0.082031 0.0625 0.19531 0.09375 0.34375 0.09375 0.17578 0 0.32812-0.0625 0.45312-0.1875s0.1875-0.28516 0.1875-0.48438v-0.10938zm1.4688-0.35938v1.7031h-0.96875v-0.4375c-0.125 0.17969-0.27344 0.30859-0.4375 0.39062-0.15625 0.082031-0.35156 0.125-0.57812 0.125-0.3125 0-0.57031-0.085938-0.76562-0.26562-0.1875-0.1875-0.28125-0.42188-0.28125-0.70312 0-0.35156 0.11719-0.61328 0.35938-0.78125 0.23828-0.16406 0.61719-0.25 1.1406-0.25h0.5625v-0.0625c0-0.15625-0.0625-0.26562-0.1875-0.32812-0.11719-0.070312-0.29688-0.10938-0.54688-0.10938-0.21094 0-0.40234 0.023437-0.57812 0.0625-0.17969 0.042969-0.33984 0.10156-0.48438 0.17188v-0.71875c0.19531-0.050781 0.39844-0.085938 0.60938-0.10938 0.20703-0.03125 0.41406-0.046875 0.625-0.046875 0.53906 0 0.92969 0.10938 1.1719 0.32812 0.23828 0.21094 0.35938 0.55469 0.35938 1.0312z"/>
  </symbol>
  <symbol id="a" overflow="visible">
   <path d="m1.5-3.8438v0.85938h0.98438v0.67188h-0.98438v1.2812c0 0.13672 0.023438 0.23047 0.078125 0.28125 0.0625 0.042969 0.17578 0.0625 0.34375 0.0625h0.48438v0.6875h-0.8125c-0.38672 0-0.65625-0.078125-0.8125-0.23438s-0.23438-0.42188-0.23438-0.79688v-1.2812h-0.46875v-0.67188h0.46875v-0.85938z"/>
  </symbol>
  <symbol id="i" overflow="visible">
   <path d="m2.5-2.5469v-1.6094h0.95312v4.1562h-0.95312v-0.4375c-0.13672 0.17969-0.28125 0.30859-0.4375 0.39062-0.15625 0.082031-0.33984 0.125-0.54688 0.125-0.375 0-0.68359-0.14453-0.92188-0.4375-0.23047-0.28906-0.34375-0.67188-0.34375-1.1406 0-0.45703 0.11328-0.83203 0.34375-1.125 0.23828-0.28906 0.54688-0.4375 0.92188-0.4375 0.19531 0 0.375 0.042969 0.53125 0.125 0.16406 0.085938 0.31641 0.21484 0.45312 0.39062zm-0.64062 1.9375c0.20703 0 0.36328-0.070313 0.46875-0.21875 0.11328-0.15625 0.17188-0.37891 0.17188-0.67188 0-0.28125-0.058594-0.49219-0.17188-0.64062-0.10547-0.15625-0.26172-0.23438-0.46875-0.23438-0.19922 0-0.35547 0.078125-0.46875 0.23438-0.10547 0.14844-0.15625 0.35938-0.15625 0.64062 0 0.29297 0.050781 0.51562 0.15625 0.67188 0.11328 0.14844 0.26953 0.21875 0.46875 0.21875z"/>
  </symbol>
  <symbol id="n" overflow="visible">
   <path d="m2.0469-0.60938c0.20703 0 0.36328-0.070313 0.46875-0.21875 0.11328-0.15625 0.17188-0.37891 0.17188-0.67188 0-0.28125-0.058594-0.49219-0.17188-0.64062-0.10547-0.15625-0.26172-0.23438-0.46875-0.23438-0.19922 0-0.35547 0.078125-0.46875 0.23438-0.10547 0.14844-0.15625 0.35938-0.15625 0.64062 0 0.29297 0.050781 0.51562 0.15625 0.67188 0.11328 0.14844 0.26953 0.21875 0.46875 0.21875zm-0.625-1.9375c0.125-0.17578 0.26562-0.30469 0.42188-0.39062 0.16406-0.082031 0.35156-0.125 0.5625-0.125 0.36328 0 0.66406 0.14844 0.90625 0.4375 0.23828 0.29297 0.35938 0.66797 0.35938 1.125 0 0.46875-0.12109 0.85156-0.35938 1.1406-0.24219 0.29297-0.54297 0.4375-0.90625 0.4375-0.21094 0-0.39844-0.042969-0.5625-0.125-0.15625-0.082031-0.29688-0.21094-0.42188-0.39062v0.4375h-0.96875v-4.1562h0.96875z"/>
  </symbol>
  <symbol id="m" overflow="visible">
   <path d="m0.0625-2.9844h0.95312l0.8125 2.0156 0.6875-2.0156h0.95312l-1.2656 3.2656c-0.125 0.33203-0.27344 0.56641-0.4375 0.70312-0.16797 0.13281-0.39062 0.20312-0.67188 0.20312h-0.54688v-0.64062h0.29688c0.16406 0 0.28516-0.027344 0.35938-0.078125 0.070313-0.054688 0.12891-0.14062 0.17188-0.26562l0.03125-0.09375z"/>
  </symbol>
  <symbol id="h" overflow="visible">
   <path d="m3.4688-1.8281v1.8281h-0.96875v-1.3906c0-0.25781-0.007812-0.4375-0.015625-0.53125-0.011719-0.10156-0.03125-0.17578-0.0625-0.21875-0.03125-0.0625-0.085937-0.10938-0.15625-0.14062-0.0625-0.039062-0.13281-0.0625-0.20312-0.0625-0.21094 0-0.37109 0.078125-0.48438 0.23438-0.10547 0.15625-0.15625 0.37109-0.15625 0.64062v1.4688h-0.96875v-4.1562h0.96875v1.6094c0.13281-0.17578 0.28516-0.30469 0.45312-0.39062 0.16406-0.082031 0.34375-0.125 0.53125-0.125 0.34375 0 0.60156 0.10938 0.78125 0.32812 0.1875 0.21094 0.28125 0.51172 0.28125 0.90625z"/>
  </symbol>
  <symbol id="g" overflow="visible">
   <path d="m3.4688-1.8281v1.8281h-0.96875v-1.3906c0-0.25781-0.007812-0.4375-0.015625-0.53125-0.011719-0.10156-0.03125-0.17578-0.0625-0.21875-0.03125-0.0625-0.085937-0.10938-0.15625-0.14062-0.0625-0.039062-0.13281-0.0625-0.20312-0.0625-0.21094 0-0.37109 0.078125-0.48438 0.23438-0.10547 0.15625-0.15625 0.37109-0.15625 0.64062v1.4688h-0.96875v-2.9844h0.96875v0.4375c0.13281-0.17578 0.28516-0.30469 0.45312-0.39062 0.16406-0.082031 0.34375-0.125 0.53125-0.125 0.34375 0 0.60156 0.10938 0.78125 0.32812 0.1875 0.21094 0.28125 0.51172 0.28125 0.90625z"/>
  </symbol>
  <symbol id="f" overflow="visible">
   <path d="m0.42188-1.1719v-1.8125h0.96875v0.29688 0.60938 0.48438c0 0.24219 0.003906 0.41797 0.015625 0.53125 0.007812 0.10547 0.03125 0.17969 0.0625 0.21875 0.039062 0.0625 0.09375 0.11719 0.15625 0.15625 0.0625 0.03125 0.13281 0.046875 0.21875 0.046875 0.19531 0 0.35156-0.078125 0.46875-0.23438 0.11328-0.15625 0.17188-0.36719 0.17188-0.64062v-1.4688h0.95312v2.9844h-0.95312v-0.4375c-0.14844 0.17969-0.30469 0.30859-0.46875 0.39062-0.15625 0.082031-0.33594 0.125-0.53125 0.125-0.34375 0-0.60938-0.10156-0.79688-0.3125-0.17969-0.21875-0.26562-0.53125-0.26562-0.9375z"/>
  </symbol>
  <symbol id="k" overflow="visible">
   <path d="m0.45312-2.9844h0.96875v2.9844h-0.96875zm0-1.1719h0.96875v0.78125h-0.96875z"/>
  </symbol>
  <symbol id="e" overflow="visible">
   <path d="m2.7969-2.8906v0.71875c-0.21094-0.082031-0.40625-0.14453-0.59375-0.1875-0.1875-0.039063-0.37109-0.0625-0.54688-0.0625-0.17969 0-0.3125 0.023437-0.40625 0.0625-0.085938 0.042969-0.125 0.10938-0.125 0.20312 0 0.085938 0.03125 0.14844 0.09375 0.1875 0.070312 0.042969 0.19531 0.074219 0.375 0.09375l0.15625 0.015625c0.48828 0.0625 0.81641 0.16797 0.98438 0.3125 0.17578 0.13672 0.26562 0.35938 0.26562 0.67188s-0.12109 0.55469-0.35938 0.71875c-0.23047 0.15625-0.57812 0.23438-1.0469 0.23438-0.19922 0-0.40625-0.015625-0.625-0.046875-0.21094-0.03125-0.42188-0.078125-0.64062-0.14062v-0.71875c0.1875 0.085937 0.37891 0.15234 0.57812 0.20312 0.20703 0.042969 0.41406 0.0625 0.625 0.0625 0.1875 0 0.32812-0.023438 0.42188-0.078125 0.09375-0.050781 0.14062-0.125 0.14062-0.21875s-0.039062-0.16016-0.10938-0.20312c-0.0625-0.039062-0.1875-0.070312-0.375-0.09375l-0.17188-0.015625c-0.42969-0.050781-0.73047-0.14844-0.90625-0.29688-0.16797-0.14453-0.25-0.36328-0.25-0.65625 0-0.32031 0.10938-0.55469 0.32812-0.70312 0.21875-0.15625 0.55078-0.23438 1-0.23438 0.17578 0 0.35938 0.015625 0.54688 0.046875 0.19531 0.023437 0.41016 0.0625 0.64062 0.125z"/>
  </symbol>
  <symbol id="u" overflow="visible">
   <path d="m0.5-3.9844h1.0312v3.9844h-1.0312z"/>
  </symbol>
  <symbol id="t" overflow="visible">
   <path d="m2.4219-4.1562v0.625h-0.51562c-0.13672 0-0.23438 0.027344-0.29688 0.078125-0.054687 0.054687-0.078125 0.13672-0.078125 0.25v0.21875h0.82812v0.67188h-0.82812v2.3125h-0.95312v-2.3125h-0.46875v-0.67188h0.46875v-0.21875c0-0.32031 0.085937-0.5625 0.26562-0.71875 0.1875-0.15625 0.47266-0.23438 0.85938-0.23438z"/>
  </symbol>
  <symbol id="d" overflow="visible">
   <path d="m1.875-2.375c-0.21094 0-0.37109 0.078125-0.48438 0.23438-0.10547 0.14844-0.15625 0.35938-0.15625 0.64062 0 0.29297 0.050781 0.51562 0.15625 0.67188 0.11328 0.14844 0.27344 0.21875 0.48438 0.21875 0.20703 0 0.36719-0.070313 0.48438-0.21875 0.11328-0.15625 0.17188-0.37891 0.17188-0.67188 0-0.28125-0.058594-0.49219-0.17188-0.64062-0.11719-0.15625-0.27734-0.23438-0.48438-0.23438zm0-0.6875c0.51953 0 0.92188 0.14062 1.2031 0.42188 0.28906 0.27344 0.4375 0.65234 0.4375 1.1406 0 0.5-0.14844 0.89062-0.4375 1.1719-0.28125 0.27344-0.68359 0.40625-1.2031 0.40625-0.51172 0-0.91406-0.13281-1.2031-0.40625-0.29297-0.28125-0.4375-0.67188-0.4375-1.1719 0-0.48828 0.14453-0.86719 0.4375-1.1406 0.28906-0.28125 0.69141-0.42188 1.2031-0.42188z"/>
  </symbol>
  <symbol id="s" overflow="visible">
   <path d="m3.2344-2.5c0.11328-0.17578 0.25391-0.3125 0.42188-0.40625 0.16406-0.10156 0.35156-0.15625 0.5625-0.15625 0.33203 0 0.58594 0.10938 0.76562 0.32812 0.1875 0.21094 0.28125 0.51172 0.28125 0.90625v1.8281h-0.96875v-1.5625c0.007813-0.019531 0.015625-0.039062 0.015625-0.0625v-0.10938c0-0.21875-0.03125-0.375-0.09375-0.46875s-0.16406-0.14062-0.29688-0.14062c-0.1875 0-0.33594 0.078125-0.4375 0.23438-0.09375 0.14844-0.14062 0.35938-0.14062 0.64062v1.4688h-0.96875v-1.5625c0-0.33203-0.03125-0.54688-0.09375-0.64062-0.054688-0.09375-0.15234-0.14062-0.29688-0.14062-0.17969 0-0.32031 0.078125-0.42188 0.23438-0.09375 0.14844-0.14062 0.35938-0.14062 0.64062v1.4688h-0.96875v-2.9844h0.96875v0.4375c0.11328-0.17578 0.24219-0.30469 0.39062-0.39062 0.15625-0.082031 0.32812-0.125 0.51562-0.125 0.20703 0 0.39062 0.054688 0.54688 0.15625 0.15625 0.09375 0.27344 0.23047 0.35938 0.40625z"/>
  </symbol>
  <symbol id="r" overflow="visible">
   <path d="m0.5-3.9844h1.1562l1.4375 2.7344v-2.7344h0.98438v3.9844h-1.1562l-1.4375-2.7344v2.7344h-0.98438z"/>
  </symbol>
  <symbol id="q" overflow="visible">
   <path d="m0.5-3.9844h1.7031c0.50781 0 0.89844 0.11719 1.1719 0.34375 0.26953 0.21875 0.40625 0.53906 0.40625 0.95312 0 0.41797-0.13672 0.74219-0.40625 0.96875-0.27344 0.21875-0.66406 0.32812-1.1719 0.32812h-0.67188v1.3906h-1.0312zm1.0312 0.75v1.1094h0.5625c0.19531 0 0.34766-0.046875 0.45312-0.14062 0.11328-0.10156 0.17188-0.24219 0.17188-0.42188 0-0.17578-0.058594-0.3125-0.17188-0.40625-0.10547-0.09375-0.25781-0.14062-0.45312-0.14062z"/>
  </symbol>
  <symbol id="p" overflow="visible">
   <path d="m0.45312-2.9844h0.96875v2.9375c0 0.39453-0.10156 0.69531-0.29688 0.90625-0.1875 0.21875-0.46484 0.32812-0.82812 0.32812h-0.48438v-0.64062h0.17188c0.17578 0 0.29688-0.042969 0.35938-0.125 0.070312-0.074219 0.10938-0.23047 0.10938-0.46875zm0-1.1719h0.96875v0.78125h-0.96875z"/>
  </symbol>
  <symbol id="o" overflow="visible">
   <path d="m2.875-2.8906v0.76562c-0.125-0.082031-0.25781-0.14453-0.39062-0.1875-0.13672-0.039062-0.27344-0.0625-0.40625-0.0625-0.27344 0-0.48047 0.078125-0.625 0.23438-0.14844 0.15625-0.21875 0.37109-0.21875 0.64062 0 0.28125 0.070313 0.5 0.21875 0.65625 0.14453 0.15625 0.35156 0.23438 0.625 0.23438 0.14453 0 0.28516-0.019531 0.42188-0.0625 0.13281-0.039063 0.25781-0.10938 0.375-0.20312v0.78125c-0.14844 0.0625-0.29688 0.10156-0.45312 0.125-0.15625 0.03125-0.3125 0.046875-0.46875 0.046875-0.54297 0-0.96484-0.13281-1.2656-0.40625-0.30469-0.28125-0.45312-0.67188-0.45312-1.1719 0-0.48828 0.14844-0.86719 0.45312-1.1406 0.30078-0.28125 0.72266-0.42188 1.2656-0.42188 0.15625 0 0.3125 0.015625 0.46875 0.046875 0.15625 0.023437 0.30469 0.0625 0.45312 0.125z"/>
  </symbol>
 </defs>
 <g>
  <path d="m494.41 142.05c-2.6055-3.8906-5.3008-7.9141-5.6992-10.922-0.42969-3.2617 1.1641-8.0234 2.7031-12.625 2.4492-7.3203 5.2266-15.613 1.293-22.426s-12.508-8.5547-20.07-10.094c-4.7578-0.96484-9.6758-1.9648-12.285-3.9688-2.4062-1.8477-4.543-6.1953-6.6094-10.395-3.4766-7.0742-7.418-15.09-15.344-17.215-7.9297-2.1211-15.348 2.8477-21.895 7.2344-3.8906 2.6055-7.9141 5.3008-10.922 5.6992-3.2578 0.43359-8.0234-1.1641-12.625-2.7031-7.3164-2.4492-15.613-5.2266-22.426-1.293-6.8164 3.9336-8.5547 12.508-10.094 20.07-0.96484 4.7578-1.9648 9.6758-3.9688 12.285-1.8477 2.4062-6.1953 4.543-10.395 6.6094-7.0742 3.4766-15.09 7.418-17.215 15.344-2.0742 7.7422 2.8281 15.273 6.1914 20.332l7.2305 14.062 14.387 28.949-0.003906-0.003906c6.707 13.48 18.121 24.039 32.078 29.68-0.015625 0.039063-0.035156 0.070313-0.050781 0.10938-0.28906 0.82031-7.1367 20.52-14.668 57.055-4.2852 20.789-9.2734 49.691-13.059 85.254l-52.984-0.003906c-0.027343-0.30469-0.085937-0.60156-0.16797-0.89453-0.30469-1.0352-0.65234-2.0586-1.0273-3.0781-3.457-21.113-8.4648-42.805-15.688-62.508 11.539-5.125 20.727-14.402 25.738-25.992l10.246-23.723 5.1445-11.48c2.5586-4.3359 6.25-10.77 4.1328-17.258-2.1719-6.6641-8.9609-9.5625-14.949-12.117-3.3398-1.4258-6.793-2.8984-8.2227-4.5664-1.5625-1.8242-2.543-5.5977-3.4883-9.2461-1.6016-6.1758-3.4219-13.172-9.4258-16.223-6-3.0508-12.727-0.39453-18.66 1.9531-3.5039 1.3867-7.1328 2.8242-9.5273 2.6328-2.1914-0.17188-5.418-2.0898-8.5391-3.9492-5.5938-3.3281-11.938-7.1055-18.602-4.9297-6.6641 2.1719-9.5625 8.9609-12.117 14.953-1.4258 3.3398-2.8984 6.793-4.5664 8.2227-1.8242 1.5625-5.5977 2.543-9.2461 3.4883-6.1758 1.6016-13.172 3.418-16.223 9.4258-3.0508 6.0039-0.39062 12.727 1.9531 18.66 1.3867 3.5039 2.8203 7.1328 2.6328 9.5273-0.17188 2.1914-2.0898 5.418-3.9453 8.5391-3.332 5.5977-7.1055 11.941-4.9297 18.602 2.1211 6.4961 8.9531 9.5391 13.617 11.547l10.797 6.1797 22.293 13.137-0.007812-0.011719c11.012 6.4922 24.082 8.5391 36.547 5.7188 4.3789 12.27 7.9648 24.809 10.734 37.539-4.8711-4.8438-10.398-8.9844-16.414-12.301-15.742-8.7109-33.391-11.293-48.43-7.0898-1.2695 0.35547-2.3438 1.2031-2.9805 2.3555-0.63672 1.1562-0.78906 2.5156-0.41406 3.7812 4.4258 14.969 15.996 28.547 31.742 37.258 1.1797 0.65234 2.3711 1.2617 3.5703 1.8477h-26.34v-0.003906c-2.5703 0-4.7031 1.9727-4.9062 4.5312l-2.4102 30.332-0.003907 0.003906c-2.8906 35.711 8.0273 71.176 30.508 99.074l13.836 17.227c0.93359 1.1641 2.3477 1.8398 3.8359 1.8398h118.4c1.4922 0 2.9023-0.67578 3.8359-1.8398l13.836-17.227c22.48-27.898 33.402-63.363 30.508-99.074l-2.4102-30.332v-0.003906c-0.20313-2.5586-2.3398-4.5312-4.9062-4.5312h-62.477c1.4062-13.043 2.9883-25.262 4.6641-36.625 4.8047 0.99609 9.6992 1.4922 14.605 1.4844 15.023-0.19141 29.758-4.168 42.836-11.562 20.066-11.102 34.805-28.379 40.434-47.406 0.37109-1.2656 0.22266-2.625-0.41406-3.7773-0.63672-1.1562-1.7109-2.0039-2.9805-2.3594-19.109-5.3438-41.578-2.0469-61.645 9.0547h-0.003906c-10.652 5.8242-20.039 13.707-27.621 23.188 8.4219-45.41 17.09-70.602 17.246-71.043 0.046875-0.13672 0.0625-0.27734 0.10156-0.41406h-0.003906c16.457 3.7734 33.742 0.62109 47.809-8.7188l26.91-17.863 13.195-8.5195c5.7969-2.8711 13.574-6.8164 15.648-14.574 2.125-7.9219-2.8477-15.344-7.2344-21.895zm-244.21 133.45-22.344-13.168-11.094-6.3477v-0.003906c-0.16406-0.089844-0.32812-0.17188-0.5-0.24609-3.8594-1.6602-7.6875-3.4648-8.4062-5.668-0.78906-2.418 1.7734-6.7188 4.0312-10.516 2.4336-4.0938 4.9531-8.3242 5.3008-12.805 0.36328-4.6641-1.4961-9.3672-3.293-13.91-1.582-4-3.3711-8.5312-2.332-10.582 1.043-2.0508 5.7578-3.2773 9.9219-4.3555 4.7305-1.2266 9.625-2.5 13.176-5.543 3.4141-2.9258 5.3477-7.4531 7.2148-11.832 1.7344-4.0625 3.6992-8.6719 6.1172-9.457l0.003907-0.003906c0.32422-0.10156 0.66406-0.15234 1.0039-0.14844 2.4922 0 6.1953 2.2031 9.5156 4.1758 4.0938 2.4336 8.3242 4.9531 12.809 5.3008 4.6719 0.36328 9.3672-1.4961 13.91-3.293 3.9961-1.582 8.5312-3.375 10.582-2.332s3.2734 5.7578 4.3555 9.9219c1.2266 4.7305 2.5 9.625 5.543 13.176 2.9258 3.4141 7.4531 5.3477 11.832 7.2188 4.0625 1.7344 8.668 3.6992 9.457 6.1172 0.71484 2.1953-1.375 6.0234-3.3906 9.4375l-0.003906 0.003906c-0.09375 0.16016-0.17578 0.32031-0.25391 0.48828l-5.2734 11.762c-0.007813 0.019531-0.019531 0.039063-0.027344 0.0625l-10.262 23.754 0.003907 0.003906c-4.5938 10.641-13.539 18.793-24.559 22.387s-23.051 2.2852-33.035-3.6016zm-14.676 40.715c11.359-1.6914 24.109 0.87891 35.781 7.3359 11.672 6.457 20.625 15.891 25.227 26.41-11.355 1.6914-24.109-0.87891-35.781-7.3359-11.668-6.457-20.621-15.891-25.227-26.41zm166.95 164.65-12.359 15.387h-113.68l-12.359-15.387c-19.918-24.727-30.105-55.883-28.641-87.602h195.68c1.4648 31.719-8.7227 62.875-28.641 87.602zm27.945-97.445h-194.29l1.6289-20.488h191.03zm-17.297-112.91c16.027-8.8633 33.625-12.172 49.109-9.3633-5.8516 14.609-18.004 27.758-34.031 36.625-16.027 8.8633-33.621 12.172-49.109 9.3672 5.8516-14.613 18.008-27.762 34.031-36.629zm79.012-109.11c-0.88281 3.2969-5.5938 5.8672-10.762 8.4258v-0.003906c-0.16406 0.082031-0.32812 0.17578-0.48438 0.27734l-13.48 8.7031-26.961 17.895c-12.371 8.2148-27.676 10.715-42.016 6.8711-14.344-3.8398-26.344-13.66-32.953-26.957l-14.402-28.98-0.03125-0.058594-7.3711-14.336v-0.003907c-0.082031-0.16016-0.17578-0.32031-0.27734-0.47266-3.0273-4.5547-5.9141-9.2734-5.0312-12.562 0.96875-3.6094 6.6016-6.3828 12.047-9.0586 5.2188-2.5664 10.609-5.2188 13.859-9.4492 3.3906-4.4141 4.6211-10.469 5.8086-16.32 1.1797-5.7969 2.3945-11.789 5.3672-13.504l0.003907-0.003906c0.92188-0.47656 1.957-0.70703 2.9961-0.66406 3.1211 0 7.3008 1.3984 11.383 2.7656 5.6641 1.8945 11.52 3.8594 17.039 3.1289 5.2891-0.69922 10.285-4.043 15.113-7.2812 5.043-3.3789 10.262-6.875 13.871-5.9023 3.6094 0.96875 6.3789 6.6016 9.0586 12.047 2.5664 5.2148 5.2148 10.609 9.4492 13.859 4.4141 3.3906 10.465 4.6172 16.32 5.8086 5.7969 1.1797 11.789 2.3945 13.504 5.3672s-0.22656 8.7695-2.1016 14.379c-1.8984 5.6641-3.8555 11.52-3.1289 17.039 0.69922 5.2891 4.043 10.281 7.2773 15.113 3.375 5.0508 6.8711 10.266 5.9023 13.879z"/>
  <path d="m462.64 141.02c-0.22656-1.707 0.78125-4.7188 1.6719-7.375 1.6992-5.0781 3.625-10.832 0.69141-15.914-2.9336-5.082-8.8828-6.2891-14.129-7.3555-2.7461-0.55859-5.8555-1.1914-7.2227-2.2383-1.2344-0.94531-2.582-3.6875-3.7695-6.1055-2.2891-4.6602-5.1406-10.461-11.027-12.035-5.8945-1.582-11.254 2.0195-15.566 4.9102-2.2383 1.5-4.7734 3.1992-6.3164 3.4023-1.7109 0.22266-4.7188-0.78125-7.375-1.6719-5.0781-1.6992-10.832-3.625-15.914-0.69141-5.082 2.9336-6.2891 8.8789-7.3555 14.125-0.55859 2.7461-1.1914 5.8594-2.2383 7.2227-0.94531 1.2344-3.6875 2.5781-6.1016 3.7695-4.6602 2.2891-10.461 5.1406-12.035 11.027l-0.003906-0.003906c-0.34375 1.2617-0.17188 2.6133 0.48047 3.7461 0.65234 1.1367 1.7305 1.9648 2.9961 2.3047 1.2656 0.33984 2.6133 0.16016 3.7422-0.49609 1.1328-0.66016 1.957-1.7422 2.2891-3.0078 0.42187-1.5703 4.1484-3.4023 6.8711-4.7422 3.5508-1.7461 7.2188-3.5508 9.5664-6.6055 2.4336-3.1719 3.2695-7.2852 4.0781-11.258 0.55469-2.7266 1.3906-6.8477 2.6328-7.5625 1.2383-0.71484 5.2266 0.61719 7.8672 1.5039 3.8477 1.2891 7.8242 2.6172 11.789 2.0977 3.8203-0.50391 7.2188-2.7812 10.508-4.9844 2.5195-1.6875 5.9805-3.9961 7.5391-3.5781 1.5703 0.42188 3.4023 4.1484 4.7422 6.8711 1.7461 3.5508 3.5508 7.2188 6.6055 9.5664 3.1719 2.4336 7.2812 3.2695 11.258 4.0781 2.7266 0.55469 6.8477 1.3906 7.5625 2.6328 0.71484 1.2422-0.61719 5.2266-1.5 7.8672-1.2891 3.8477-2.6172 7.8242-2.0938 11.789 0.50391 3.8203 2.7812 7.2188 4.9805 10.508 1.6875 2.5195 4 5.9727 3.5781 7.5391v-0.003906c-0.33984 1.2617-0.16406 2.6055 0.48828 3.7383s1.7305 1.957 2.9922 2.2969c1.2617 0.33594 2.6055 0.16016 3.7344-0.49219 1.1328-0.65625 1.957-1.7305 2.293-2.9922 1.5781-5.8828-2.0195-11.254-4.9102-15.566-1.4961-2.2383-3.1953-4.7773-3.3984-6.3164z"/>
  <path d="m286.66 201.35c0.70703 0.53906 1.5117 3.6445 1.9453 5.3125 0.80469 3.0977 1.7148 6.6094 3.9453 9.2109 2.1562 2.5156 5.2695 3.8438 8.2852 5.1328 1.4609 0.62109 4.875 2.082 5.1367 2.8906v-0.003906c0.83984 2.5859 3.6211 3.9961 6.2031 3.1562 1.2422-0.40625 2.2734-1.2891 2.8633-2.4492 0.58984-1.1641 0.69531-2.5156 0.29297-3.7578-1.6484-5.0586-6.6289-7.1836-10.633-8.8906-1.7891-0.76172-4.0156-1.7148-4.6758-2.4844-0.74609-0.87109-1.3828-3.3164-1.8906-5.2773-1.0703-4.1289-2.4062-9.2695-6.9883-11.598-4.582-2.3242-9.5195-0.375-13.484 1.1953-1.8867 0.74609-4.2461 1.6719-5.3789 1.582-1.0078-0.078126-3.0898-1.3164-4.7617-2.3125-3.7383-2.2266-8.3945-4.9922-13.449-3.3438-5.0547 1.6484-7.1836 6.6289-8.8906 10.633-0.76562 1.7891-1.7148 4.0156-2.4844 4.6719-0.87109 0.74609-3.3164 1.3828-5.2773 1.8906-4.1289 1.0742-9.2695 2.4062-11.598 6.9844s-0.375 9.5195 1.1953 13.488c0.74609 1.8867 1.6758 4.2305 1.5859 5.3789-0.078125 1.0078-1.3164 3.0898-2.3125 4.7617-2.2266 3.7383-4.9922 8.3945-3.3438 13.449v0.007812c0.84375 2.582 3.625 3.9961 6.207 3.1523 2.5859-0.84375 3.9961-3.625 3.1523-6.207-0.26562-0.80859 1.6328-4 2.4453-5.3633 1.6758-2.8164 3.4102-5.7266 3.6641-9.0312 0.26562-3.4141-1.0664-6.7891-2.2461-9.7617-0.63281-1.6016-1.8125-4.5859-1.5898-5.3789 0.53906-0.70703 3.6445-1.5156 5.3125-1.9453 3.0977-0.80469 6.6055-1.7148 9.207-3.9453 2.5156-2.1562 3.8438-5.2695 5.1328-8.2852 0.62109-1.457 2.082-4.875 2.8906-5.1367 0.8125-0.27344 3.8867 1.5664 5.3633 2.4453 2.8164 1.6758 5.7266 3.4062 9.0312 3.6641 3.4062 0.26953 6.7852-1.0664 9.7656-2.2461 1.6055-0.63281 4.5938-1.8086 5.3789-1.5898z"/>
  <use x="70" y="576.40625" xlink:href="#l"/>
  <use x="74.011719" y="576.40625" xlink:href="#c"/>
  <use x="76.710938" y="576.40625" xlink:href="#b"/>
  <use x="80.417969" y="576.40625" xlink:href="#j"/>
  <use x="84.109375" y="576.40625" xlink:href="#a"/>
  <use x="86.722656" y="576.40625" xlink:href="#b"/>
  <use x="90.433594" y="576.40625" xlink:href="#i"/>
  <use x="96.25" y="576.40625" xlink:href="#n"/>
  <use x="100.167969" y="576.40625" xlink:href="#m"/>
  <use x="105.636719" y="576.40625" xlink:href="#l"/>
  <use x="109.648438" y="576.40625" xlink:href="#h"/>
  <use x="113.542969" y="576.40625" xlink:href="#j"/>
  <use x="117.230469" y="576.40625" xlink:href="#g"/>
  <use x="121.125" y="576.40625" xlink:href="#f"/>
  <use x="125.019531" y="576.40625" xlink:href="#a"/>
  <use x="129.535156" y="576.40625" xlink:href="#k"/>
  <use x="131.410156" y="576.40625" xlink:href="#e"/>
  <use x="136.570312" y="576.40625" xlink:href="#u"/>
  <use x="138.605469" y="576.40625" xlink:href="#g"/>
  <use x="142.5" y="576.40625" xlink:href="#i"/>
  <use x="146.414062" y="576.40625" xlink:href="#f"/>
  <use x="150.304688" y="576.40625" xlink:href="#e"/>
  <use x="153.5625" y="576.40625" xlink:href="#a"/>
  <use x="156.175781" y="576.40625" xlink:href="#c"/>
  <use x="158.871094" y="576.40625" xlink:href="#k"/>
  <use x="160.746094" y="576.40625" xlink:href="#b"/>
  <use x="164.457031" y="576.40625" xlink:href="#e"/>
  <use x="70" y="581.875" xlink:href="#t"/>
  <use x="72.378906" y="581.875" xlink:href="#c"/>
  <use x="75.078125" y="581.875" xlink:href="#d"/>
  <use x="78.832031" y="581.875" xlink:href="#s"/>
  <use x="86.4375" y="581.875" xlink:href="#a"/>
  <use x="89.050781" y="581.875" xlink:href="#h"/>
  <use x="92.941406" y="581.875" xlink:href="#b"/>
  <use x="98.554688" y="581.875" xlink:href="#r"/>
  <use x="103.132812" y="581.875" xlink:href="#d"/>
  <use x="106.890625" y="581.875" xlink:href="#f"/>
  <use x="110.785156" y="581.875" xlink:href="#g"/>
  <use x="116.582031" y="581.875" xlink:href="#q"/>
  <use x="120.589844" y="581.875" xlink:href="#c"/>
  <use x="123.285156" y="581.875" xlink:href="#d"/>
  <use x="127.042969" y="581.875" xlink:href="#p"/>
  <use x="128.917969" y="581.875" xlink:href="#b"/>
  <use x="132.625" y="581.875" xlink:href="#o"/>
  <use x="135.867188" y="581.875" xlink:href="#a"/>
 </g>
</svg>
