<?xml version="1.0" encoding="UTF-8"?>
<svg width="700pt" height="700pt" version="1.1" viewBox="0 0 700 700" xmlns="http://www.w3.org/2000/svg" xmlns:xlink="http://www.w3.org/1999/xlink">
 <defs>
  <symbol id="l" overflow="visible">
   <path d="m3.6562-0.21875c-0.1875 0.09375-0.38672 0.16797-0.59375 0.21875-0.19922 0.050781-0.40625 0.078125-0.625 0.078125-0.66797 0-1.1992-0.17969-1.5938-0.54688-0.38672-0.375-0.57812-0.87891-0.57812-1.5156 0-0.64453 0.19141-1.1484 0.57812-1.5156 0.39453-0.375 0.92578-0.5625 1.5938-0.5625 0.21875 0 0.42578 0.027344 0.625 0.078125 0.20703 0.054687 0.40625 0.125 0.59375 0.21875v0.82812c-0.1875-0.125-0.375-0.21875-0.5625-0.28125-0.17969-0.0625-0.37109-0.09375-0.57812-0.09375-0.36719 0-0.65625 0.12109-0.875 0.35938-0.21094 0.23047-0.3125 0.55469-0.3125 0.96875 0 0.40625 0.10156 0.73047 0.3125 0.96875 0.21875 0.23047 0.50781 0.34375 0.875 0.34375 0.20703 0 0.39844-0.023437 0.57812-0.078125 0.1875-0.0625 0.375-0.16016 0.5625-0.29688z"/>
  </symbol>
  <symbol id="c" overflow="visible">
   <path d="m2.6875-2.1719c-0.085938-0.039063-0.16797-0.070313-0.25-0.09375-0.085938-0.019531-0.16797-0.03125-0.25-0.03125-0.25 0-0.44531 0.085937-0.57812 0.25-0.125 0.15625-0.1875 0.38281-0.1875 0.67188v1.375h-0.96875v-2.9844h0.96875v0.48438c0.11328-0.19531 0.25-0.33594 0.40625-0.42188 0.16406-0.09375 0.35938-0.14062 0.57812-0.14062h0.10938c0.039063 0 0.09375 0.007812 0.15625 0.015625z"/>
  </symbol>
  <symbol id="b" overflow="visible">
   <path d="m3.4375-1.5v0.26562h-2.2344c0.03125 0.23047 0.11328 0.40234 0.25 0.51562 0.13281 0.10547 0.32812 0.15625 0.57812 0.15625 0.20703 0 0.41406-0.023438 0.625-0.078125 0.20703-0.0625 0.42188-0.15625 0.64062-0.28125v0.73438c-0.21875 0.09375-0.44531 0.16406-0.67188 0.20312-0.23047 0.039062-0.45312 0.0625-0.67188 0.0625-0.54297 0-0.96484-0.13281-1.2656-0.40625-0.30469-0.28125-0.45312-0.67188-0.45312-1.1719 0-0.47656 0.14453-0.85938 0.4375-1.1406 0.30078-0.28125 0.70703-0.42188 1.2188-0.42188 0.46875 0 0.84375 0.14062 1.125 0.42188s0.42188 0.66406 0.42188 1.1406zm-0.96875-0.32812c0-0.17578-0.058594-0.31641-0.17188-0.42188-0.10547-0.11328-0.24219-0.17188-0.40625-0.17188-0.1875 0-0.33984 0.054687-0.45312 0.15625-0.11719 0.10547-0.1875 0.25-0.21875 0.4375z"/>
  </symbol>
  <symbol id="j" overflow="visible">
   <path d="m1.7969-1.3438c-0.19922 0-0.35156 0.039062-0.45312 0.10938-0.09375 0.0625-0.14062 0.16406-0.14062 0.29688 0 0.11719 0.035156 0.21094 0.10938 0.28125 0.082031 0.0625 0.19531 0.09375 0.34375 0.09375 0.17578 0 0.32812-0.0625 0.45312-0.1875s0.1875-0.28516 0.1875-0.48438v-0.10938zm1.4688-0.35938v1.7031h-0.96875v-0.4375c-0.125 0.17969-0.27344 0.30859-0.4375 0.39062-0.15625 0.082031-0.35156 0.125-0.57812 0.125-0.3125 0-0.57031-0.085938-0.76562-0.26562-0.1875-0.1875-0.28125-0.42188-0.28125-0.70312 0-0.35156 0.11719-0.61328 0.35938-0.78125 0.23828-0.16406 0.61719-0.25 1.1406-0.25h0.5625v-0.0625c0-0.15625-0.0625-0.26562-0.1875-0.32812-0.11719-0.070312-0.29688-0.10938-0.54688-0.10938-0.21094 0-0.40234 0.023437-0.57812 0.0625-0.17969 0.042969-0.33984 0.10156-0.48438 0.17188v-0.71875c0.19531-0.050781 0.39844-0.085938 0.60938-0.10938 0.20703-0.03125 0.41406-0.046875 0.625-0.046875 0.53906 0 0.92969 0.10938 1.1719 0.32812 0.23828 0.21094 0.35938 0.55469 0.35938 1.0312z"/>
  </symbol>
  <symbol id="a" overflow="visible">
   <path d="m1.5-3.8438v0.85938h0.98438v0.67188h-0.98438v1.2812c0 0.13672 0.023438 0.23047 0.078125 0.28125 0.0625 0.042969 0.17578 0.0625 0.34375 0.0625h0.48438v0.6875h-0.8125c-0.38672 0-0.65625-0.078125-0.8125-0.23438s-0.23438-0.42188-0.23438-0.79688v-1.2812h-0.46875v-0.67188h0.46875v-0.85938z"/>
  </symbol>
  <symbol id="i" overflow="visible">
   <path d="m2.5-2.5469v-1.6094h0.95312v4.1562h-0.95312v-0.4375c-0.13672 0.17969-0.28125 0.30859-0.4375 0.39062-0.15625 0.082031-0.33984 0.125-0.54688 0.125-0.375 0-0.68359-0.14453-0.92188-0.4375-0.23047-0.28906-0.34375-0.67188-0.34375-1.1406 0-0.45703 0.11328-0.83203 0.34375-1.125 0.23828-0.28906 0.54688-0.4375 0.92188-0.4375 0.19531 0 0.375 0.042969 0.53125 0.125 0.16406 0.085938 0.31641 0.21484 0.45312 0.39062zm-0.64062 1.9375c0.20703 0 0.36328-0.070313 0.46875-0.21875 0.11328-0.15625 0.17188-0.37891 0.17188-0.67188 0-0.28125-0.058594-0.49219-0.17188-0.64062-0.10547-0.15625-0.26172-0.23438-0.46875-0.23438-0.19922 0-0.35547 0.078125-0.46875 0.23438-0.10547 0.14844-0.15625 0.35938-0.15625 0.64062 0 0.29297 0.050781 0.51562 0.15625 0.67188 0.11328 0.14844 0.26953 0.21875 0.46875 0.21875z"/>
  </symbol>
  <symbol id="n" overflow="visible">
   <path d="m2.0469-0.60938c0.20703 0 0.36328-0.070313 0.46875-0.21875 0.11328-0.15625 0.17188-0.37891 0.17188-0.67188 0-0.28125-0.058594-0.49219-0.17188-0.64062-0.10547-0.15625-0.26172-0.23438-0.46875-0.23438-0.19922 0-0.35547 0.078125-0.46875 0.23438-0.10547 0.14844-0.15625 0.35938-0.15625 0.64062 0 0.29297 0.050781 0.51562 0.15625 0.67188 0.11328 0.14844 0.26953 0.21875 0.46875 0.21875zm-0.625-1.9375c0.125-0.17578 0.26562-0.30469 0.42188-0.39062 0.16406-0.082031 0.35156-0.125 0.5625-0.125 0.36328 0 0.66406 0.14844 0.90625 0.4375 0.23828 0.29297 0.35938 0.66797 0.35938 1.125 0 0.46875-0.12109 0.85156-0.35938 1.1406-0.24219 0.29297-0.54297 0.4375-0.90625 0.4375-0.21094 0-0.39844-0.042969-0.5625-0.125-0.15625-0.082031-0.29688-0.21094-0.42188-0.39062v0.4375h-0.96875v-4.1562h0.96875z"/>
  </symbol>
  <symbol id="m" overflow="visible">
   <path d="m0.0625-2.9844h0.95312l0.8125 2.0156 0.6875-2.0156h0.95312l-1.2656 3.2656c-0.125 0.33203-0.27344 0.56641-0.4375 0.70312-0.16797 0.13281-0.39062 0.20312-0.67188 0.20312h-0.54688v-0.64062h0.29688c0.16406 0 0.28516-0.027344 0.35938-0.078125 0.070313-0.054688 0.12891-0.14062 0.17188-0.26562l0.03125-0.09375z"/>
  </symbol>
  <symbol id="h" overflow="visible">
   <path d="m3.4688-1.8281v1.8281h-0.96875v-1.3906c0-0.25781-0.007812-0.4375-0.015625-0.53125-0.011719-0.10156-0.03125-0.17578-0.0625-0.21875-0.03125-0.0625-0.085937-0.10938-0.15625-0.14062-0.0625-0.039062-0.13281-0.0625-0.20312-0.0625-0.21094 0-0.37109 0.078125-0.48438 0.23438-0.10547 0.15625-0.15625 0.37109-0.15625 0.64062v1.4688h-0.96875v-4.1562h0.96875v1.6094c0.13281-0.17578 0.28516-0.30469 0.45312-0.39062 0.16406-0.082031 0.34375-0.125 0.53125-0.125 0.34375 0 0.60156 0.10938 0.78125 0.32812 0.1875 0.21094 0.28125 0.51172 0.28125 0.90625z"/>
  </symbol>
  <symbol id="g" overflow="visible">
   <path d="m3.4688-1.8281v1.8281h-0.96875v-1.3906c0-0.25781-0.007812-0.4375-0.015625-0.53125-0.011719-0.10156-0.03125-0.17578-0.0625-0.21875-0.03125-0.0625-0.085937-0.10938-0.15625-0.14062-0.0625-0.039062-0.13281-0.0625-0.20312-0.0625-0.21094 0-0.37109 0.078125-0.48438 0.23438-0.10547 0.15625-0.15625 0.37109-0.15625 0.64062v1.4688h-0.96875v-2.9844h0.96875v0.4375c0.13281-0.17578 0.28516-0.30469 0.45312-0.39062 0.16406-0.082031 0.34375-0.125 0.53125-0.125 0.34375 0 0.60156 0.10938 0.78125 0.32812 0.1875 0.21094 0.28125 0.51172 0.28125 0.90625z"/>
  </symbol>
  <symbol id="f" overflow="visible">
   <path d="m0.42188-1.1719v-1.8125h0.96875v0.29688 0.60938 0.48438c0 0.24219 0.003906 0.41797 0.015625 0.53125 0.007812 0.10547 0.03125 0.17969 0.0625 0.21875 0.039062 0.0625 0.09375 0.11719 0.15625 0.15625 0.0625 0.03125 0.13281 0.046875 0.21875 0.046875 0.19531 0 0.35156-0.078125 0.46875-0.23438 0.11328-0.15625 0.17188-0.36719 0.17188-0.64062v-1.4688h0.95312v2.9844h-0.95312v-0.4375c-0.14844 0.17969-0.30469 0.30859-0.46875 0.39062-0.15625 0.082031-0.33594 0.125-0.53125 0.125-0.34375 0-0.60938-0.10156-0.79688-0.3125-0.17969-0.21875-0.26562-0.53125-0.26562-0.9375z"/>
  </symbol>
  <symbol id="k" overflow="visible">
   <path d="m0.45312-2.9844h0.96875v2.9844h-0.96875zm0-1.1719h0.96875v0.78125h-0.96875z"/>
  </symbol>
  <symbol id="e" overflow="visible">
   <path d="m2.7969-2.8906v0.71875c-0.21094-0.082031-0.40625-0.14453-0.59375-0.1875-0.1875-0.039063-0.37109-0.0625-0.54688-0.0625-0.17969 0-0.3125 0.023437-0.40625 0.0625-0.085938 0.042969-0.125 0.10938-0.125 0.20312 0 0.085938 0.03125 0.14844 0.09375 0.1875 0.070312 0.042969 0.19531 0.074219 0.375 0.09375l0.15625 0.015625c0.48828 0.0625 0.81641 0.16797 0.98438 0.3125 0.17578 0.13672 0.26562 0.35938 0.26562 0.67188s-0.12109 0.55469-0.35938 0.71875c-0.23047 0.15625-0.57812 0.23438-1.0469 0.23438-0.19922 0-0.40625-0.015625-0.625-0.046875-0.21094-0.03125-0.42188-0.078125-0.64062-0.14062v-0.71875c0.1875 0.085937 0.37891 0.15234 0.57812 0.20312 0.20703 0.042969 0.41406 0.0625 0.625 0.0625 0.1875 0 0.32812-0.023438 0.42188-0.078125 0.09375-0.050781 0.14062-0.125 0.14062-0.21875s-0.039062-0.16016-0.10938-0.20312c-0.0625-0.039062-0.1875-0.070312-0.375-0.09375l-0.17188-0.015625c-0.42969-0.050781-0.73047-0.14844-0.90625-0.29688-0.16797-0.14453-0.25-0.36328-0.25-0.65625 0-0.32031 0.10938-0.55469 0.32812-0.70312 0.21875-0.15625 0.55078-0.23438 1-0.23438 0.17578 0 0.35938 0.015625 0.54688 0.046875 0.19531 0.023437 0.41016 0.0625 0.64062 0.125z"/>
  </symbol>
  <symbol id="u" overflow="visible">
   <path d="m0.5-3.9844h1.0312v3.9844h-1.0312z"/>
  </symbol>
  <symbol id="t" overflow="visible">
   <path d="m2.4219-4.1562v0.625h-0.51562c-0.13672 0-0.23438 0.027344-0.29688 0.078125-0.054687 0.054687-0.078125 0.13672-0.078125 0.25v0.21875h0.82812v0.67188h-0.82812v2.3125h-0.95312v-2.3125h-0.46875v-0.67188h0.46875v-0.21875c0-0.32031 0.085937-0.5625 0.26562-0.71875 0.1875-0.15625 0.47266-0.23438 0.85938-0.23438z"/>
  </symbol>
  <symbol id="d" overflow="visible">
   <path d="m1.875-2.375c-0.21094 0-0.37109 0.078125-0.48438 0.23438-0.10547 0.14844-0.15625 0.35938-0.15625 0.64062 0 0.29297 0.050781 0.51562 0.15625 0.67188 0.11328 0.14844 0.27344 0.21875 0.48438 0.21875 0.20703 0 0.36719-0.070313 0.48438-0.21875 0.11328-0.15625 0.17188-0.37891 0.17188-0.67188 0-0.28125-0.058594-0.49219-0.17188-0.64062-0.11719-0.15625-0.27734-0.23438-0.48438-0.23438zm0-0.6875c0.51953 0 0.92188 0.14062 1.2031 0.42188 0.28906 0.27344 0.4375 0.65234 0.4375 1.1406 0 0.5-0.14844 0.89062-0.4375 1.1719-0.28125 0.27344-0.68359 0.40625-1.2031 0.40625-0.51172 0-0.91406-0.13281-1.2031-0.40625-0.29297-0.28125-0.4375-0.67188-0.4375-1.1719 0-0.48828 0.14453-0.86719 0.4375-1.1406 0.28906-0.28125 0.69141-0.42188 1.2031-0.42188z"/>
  </symbol>
  <symbol id="s" overflow="visible">
   <path d="m3.2344-2.5c0.11328-0.17578 0.25391-0.3125 0.42188-0.40625 0.16406-0.10156 0.35156-0.15625 0.5625-0.15625 0.33203 0 0.58594 0.10938 0.76562 0.32812 0.1875 0.21094 0.28125 0.51172 0.28125 0.90625v1.8281h-0.96875v-1.5625c0.007813-0.019531 0.015625-0.039062 0.015625-0.0625v-0.10938c0-0.21875-0.03125-0.375-0.09375-0.46875s-0.16406-0.14062-0.29688-0.14062c-0.1875 0-0.33594 0.078125-0.4375 0.23438-0.09375 0.14844-0.14062 0.35938-0.14062 0.64062v1.4688h-0.96875v-1.5625c0-0.33203-0.03125-0.54688-0.09375-0.64062-0.054688-0.09375-0.15234-0.14062-0.29688-0.14062-0.17969 0-0.32031 0.078125-0.42188 0.23438-0.09375 0.14844-0.14062 0.35938-0.14062 0.64062v1.4688h-0.96875v-2.9844h0.96875v0.4375c0.11328-0.17578 0.24219-0.30469 0.39062-0.39062 0.15625-0.082031 0.32812-0.125 0.51562-0.125 0.20703 0 0.39062 0.054688 0.54688 0.15625 0.15625 0.09375 0.27344 0.23047 0.35938 0.40625z"/>
  </symbol>
  <symbol id="r" overflow="visible">
   <path d="m0.5-3.9844h1.1562l1.4375 2.7344v-2.7344h0.98438v3.9844h-1.1562l-1.4375-2.7344v2.7344h-0.98438z"/>
  </symbol>
  <symbol id="q" overflow="visible">
   <path d="m0.5-3.9844h1.7031c0.50781 0 0.89844 0.11719 1.1719 0.34375 0.26953 0.21875 0.40625 0.53906 0.40625 0.95312 0 0.41797-0.13672 0.74219-0.40625 0.96875-0.27344 0.21875-0.66406 0.32812-1.1719 0.32812h-0.67188v1.3906h-1.0312zm1.0312 0.75v1.1094h0.5625c0.19531 0 0.34766-0.046875 0.45312-0.14062 0.11328-0.10156 0.17188-0.24219 0.17188-0.42188 0-0.17578-0.058594-0.3125-0.17188-0.40625-0.10547-0.09375-0.25781-0.14062-0.45312-0.14062z"/>
  </symbol>
  <symbol id="p" overflow="visible">
   <path d="m0.45312-2.9844h0.96875v2.9375c0 0.39453-0.10156 0.69531-0.29688 0.90625-0.1875 0.21875-0.46484 0.32812-0.82812 0.32812h-0.48438v-0.64062h0.17188c0.17578 0 0.29688-0.042969 0.35938-0.125 0.070312-0.074219 0.10938-0.23047 0.10938-0.46875zm0-1.1719h0.96875v0.78125h-0.96875z"/>
  </symbol>
  <symbol id="o" overflow="visible">
   <path d="m2.875-2.8906v0.76562c-0.125-0.082031-0.25781-0.14453-0.39062-0.1875-0.13672-0.039062-0.27344-0.0625-0.40625-0.0625-0.27344 0-0.48047 0.078125-0.625 0.23438-0.14844 0.15625-0.21875 0.37109-0.21875 0.64062 0 0.28125 0.070313 0.5 0.21875 0.65625 0.14453 0.15625 0.35156 0.23438 0.625 0.23438 0.14453 0 0.28516-0.019531 0.42188-0.0625 0.13281-0.039063 0.25781-0.10938 0.375-0.20312v0.78125c-0.14844 0.0625-0.29688 0.10156-0.45312 0.125-0.15625 0.03125-0.3125 0.046875-0.46875 0.046875-0.54297 0-0.96484-0.13281-1.2656-0.40625-0.30469-0.28125-0.45312-0.67188-0.45312-1.1719 0-0.48828 0.14844-0.86719 0.45312-1.1406 0.30078-0.28125 0.72266-0.42188 1.2656-0.42188 0.15625 0 0.3125 0.015625 0.46875 0.046875 0.15625 0.023437 0.30469 0.0625 0.45312 0.125z"/>
  </symbol>
 </defs>
 <g>
  <path d="m529.09 341.47h-7.4414c-13.664 0.015625-27.008 4.1172-38.324 11.777-11.312 7.6602-20.082 18.527-25.172 31.207-5.0898-12.68-13.855-23.547-25.172-31.207-11.312-7.6602-24.66-11.762-38.324-11.777h-7.4414 0.003906c-2.7188 0-4.9219 2.2031-4.9219 4.9219v7.4414c0.019531 18.137 7.2344 35.527 20.059 48.355 12.828 12.824 30.219 20.039 48.355 20.062h2.5195v32.707c-24.039 0.85547-47.402 8.1562-67.648 21.145-7.7734 4.9805-16.812 7.6289-26.043 7.625-9.2305 0-18.27-2.6445-26.043-7.625-20.246-12.988-43.609-20.289-67.648-21.145v-32.707h2.5195c18.141-0.023437 35.531-7.2383 48.355-20.062 12.828-12.828 20.043-30.219 20.062-48.355v-7.4414c0-2.7188-2.2031-4.9219-4.9219-4.9219h-7.4414c-13.66 0.015625-27.008 4.1172-38.324 11.777-11.312 7.6602-20.078 18.527-25.172 31.207-5.0898-12.68-13.855-23.547-25.168-31.207-11.316-7.6602-24.664-11.762-38.324-11.777h-7.4414c-2.7188 0-4.9219 2.2031-4.9219 4.9219v7.4414c0.019532 18.137 7.2344 35.527 20.062 48.355 12.824 12.824 30.215 20.039 48.355 20.062h2.5195v32.711l-0.003906-0.003906c-24.035 0.85547-47.398 8.1602-67.645 21.145-2.2891 1.4688-2.9492 4.5156-1.4805 6.8008 1.4688 2.2891 4.5117 2.9492 6.8008 1.4805 20.074-12.852 43.41-19.68 67.246-19.68s47.176 6.8281 67.25 19.68c9.3594 5.9961 20.246 9.1836 31.363 9.1875 11.117 0 22.004-3.1875 31.363-9.1875 20.078-12.852 43.414-19.68 67.25-19.68 23.836 0 47.176 6.8281 67.25 19.68 1.0977 0.72266 2.4414 0.97656 3.7266 0.70312 1.2852-0.27344 2.4062-1.0508 3.1172-2.1562 0.71094-1.1055 0.94922-2.4492 0.66406-3.7305-0.28906-1.2852-1.0742-2.3984-2.1875-3.0977-20.246-12.988-43.609-20.289-67.648-21.145v-32.707h2.5195c18.137-0.023437 35.527-7.2383 48.355-20.062 12.824-12.828 20.039-30.219 20.062-48.355v-7.4414c0-2.7188-2.2031-4.9219-4.9219-4.9219zm-204.66 9.8438h2.5195v2.5195h-0.003906c-0.015625 15.527-6.1953 30.418-17.176 41.398s-25.867 17.156-41.398 17.176h-2.5195v-2.5195c0.019531-15.527 6.1953-30.418 17.176-41.398 10.98-10.98 25.871-17.156 41.398-17.176zm-129.51 2.5195v-2.5195h2.5195-0.003906c15.527 0.019532 30.414 6.1953 41.398 17.176 10.98 10.98 17.156 25.871 17.172 41.398v2.5195h-2.5195 0.003906c-15.531-0.019531-30.418-6.1953-41.398-17.176-10.98-10.98-17.16-25.871-17.176-41.398zm197.23 0v-2.5195h2.5195-0.007812c15.531 0.019532 30.418 6.1953 41.398 17.176 10.98 10.98 17.16 25.871 17.176 41.398v2.5195h-2.5195c-15.527-0.019531-30.418-6.1953-41.398-17.176-10.98-10.98-17.156-25.871-17.172-41.398zm132.03 0h-0.003907c-0.019531 15.527-6.1953 30.418-17.176 41.398s-25.871 17.156-41.398 17.176h-2.5195v-2.5195c0.019532-15.527 6.1953-30.418 17.176-41.398 10.98-10.98 25.871-17.156 41.398-17.176h2.5195z"/>
  <path d="m234.24 271.14c3.832 3.8438 9.0352 6.0078 14.461 6.0039 0.73438 0 1.4688-0.039062 2.1953-0.11719 6.1602-0.64453 11.695-4.0469 15.043-9.2578l19.508-30.191 76.535-9.5312 16.703 10.543h-0.003906c1.5195 0.95703 3.4336 1.0117 5.0039 0.14453 1.5703-0.86328 2.5469-2.5156 2.5469-4.3086v-44.223c0-1.793-0.97656-3.4453-2.5469-4.3125-1.5703-0.86328-3.4844-0.80859-5.0039 0.14844l-16.699 10.539-46.316-5.7695 14.672-22.707-0.003906 0.003907c1.2617-1.9492 0.98828-4.5117-0.65234-6.1523l-61.664-61.664-0.007812-0.003906-23.262-23.27c-6.7812-6.7773-15.977-10.59-25.562-10.59-9.5898 0-18.785 3.8125-25.562 10.59l-9.9219 9.9219c-6.7695 6.7852-10.57 15.977-10.57 25.559 0 9.5859 3.8008 18.777 10.57 25.562l7.3359 7.3359-28.836 18.633c-5.1992 3.3594-8.6016 8.8906-9.2578 15.047-0.65234 6.1562 1.5117 12.277 5.8867 16.656zm128.27-64.574h0.003906c1.1289 0.13672 2.2695-0.11719 3.2344-0.72266l10.641-6.7148v26.371l-10.641-6.7148c-0.96484-0.60938-2.1055-0.86328-3.2344-0.72266l-70.094 8.7305 17.312-26.801zm-171.85-75.465h0.003906c-4.9258-4.9375-7.6914-11.629-7.6914-18.602 0-6.9766 2.7656-13.668 7.6914-18.605l9.9219-9.9219v0.003906c4.9336-4.9336 11.625-7.7031 18.602-7.7031s13.668 2.7695 18.602 7.7031l18.965 18.965-57.254 36.992zm-27.926 49.012c0.33594-3.1992 2.1055-6.0742 4.8086-7.8164l96.328-62.234 56.039 56.039-62.238 96.328 0.003906-0.003907c-1.7461 2.7031-4.6211 4.4727-7.8203 4.8125-3.1953 0.33984-6.3789-0.78516-8.6523-3.0586l-75.41-75.41c-2.2812-2.2695-3.4062-5.457-3.0586-8.6562z"/>
  <path d="m463.39 272.38c1.5625 2.2227 4.6328 2.7539 6.8555 1.1914 1.0703-0.75391 1.793-1.8984 2.0156-3.1836 0.22266-1.2891-0.074219-2.6094-0.82422-3.6758-4.6992-6.6133-10.273-12.559-16.566-17.676-2.1055-1.7227-5.207-1.4141-6.9297 0.6875-1.7227 2.1016-1.4141 5.2031 0.69141 6.9258 5.6055 4.5547 10.57 9.8477 14.758 15.73z"/>
  <path d="m476.13 285.3c-1.2383 0.40625-2.2695 1.2891-2.8594 2.4531-0.58984 1.1641-0.69141 2.5156-0.28516 3.7539 2.207 6.8672 3.4883 14 3.8086 21.211 0.125 2.6172 2.2852 4.6797 4.9102 4.6797 0.082031 0 0.16406-0.003906 0.24219-0.003906 2.7148-0.13281 4.8086-2.4414 4.6797-5.1562-0.36328-8.0859-1.8047-16.086-4.2891-23.789-0.40234-1.2422-1.2852-2.2695-2.4492-2.8594-1.1641-0.59375-2.5156-0.69531-3.7578-0.28906z"/>
  <path d="m409.86 237.14c7.0586 1.8008 13.895 4.3828 20.383 7.6914 2.4336 1.2188 5.3906 0.23438 6.6055-2.1953 1.2188-2.4297 0.23438-5.3867-2.1953-6.6055-7.2148-3.6914-14.824-6.5469-22.688-8.5078-2.6484-0.5625-5.25 1.1211-5.8281 3.7617-0.57812 2.6445 1.0859 5.2578 3.7227 5.8555z"/>
  <path d="m500.04 228.73c5.9062 4.2812 11.32 9.2031 16.145 14.676 1.7969 2.043 4.9062 2.2383 6.9492 0.44531 2.0391-1.7969 2.2383-4.9102 0.44141-6.9492-5.3047-6.0195-11.262-11.434-17.758-16.141-2.1992-1.5508-5.2383-1.0469-6.8203 1.1328s-1.1172 5.2266 1.043 6.8359z"/>
  <path d="m460.17 210.6c7.1562 1.7734 14.145 4.1797 20.879 7.1836 1.1914 0.53906 2.5469 0.58203 3.7695 0.12109 1.2227-0.46484 2.2109-1.3945 2.75-2.5859 0.53516-1.1953 0.57422-2.5508 0.10938-3.7734-0.46875-1.2227-1.4023-2.207-2.5938-2.7422-7.2656-3.2422-14.801-5.8359-22.523-7.7539-2.6328-0.64453-5.2891 0.96094-5.9453 3.5859-0.66016 2.6289 0.92969 5.293 3.5547 5.9648z"/>
  <path d="m546.91 278.3c-2.5039-7.5508-5.7031-14.855-9.5508-21.82-1.3242-2.375-4.3203-3.2266-6.6953-1.9023-2.375 1.3203-3.2305 4.3203-1.9062 6.6953 3.5547 6.4297 6.5039 13.176 8.8164 20.152 0.86328 2.5781 3.6523 3.9688 6.2305 3.1055 1.2383-0.41406 2.2617-1.3047 2.8438-2.4727 0.58203-1.168 0.67578-2.5195 0.26172-3.7578z"/>
  <path d="m416.27 206.64c0.03125-0.003906 3.3477-0.34375 8.8086-0.34375 4.3047 0 8.7422 0.20703 13.191 0.61328 0.15234 0.015625 0.30469 0.019532 0.45312 0.019532 2.6289 0 4.793-2.0703 4.9141-4.6992 0.11719-2.6289-1.8516-4.8828-4.4727-5.125-4.7461-0.43359-9.4844-0.65234-14.086-0.65234-6.0352 0-9.6953 0.38281-9.8477 0.39844-2.6836 0.3125-4.6133 2.7266-4.3281 5.4102 0.28516 2.6875 2.6797 4.6406 5.3711 4.3789z"/>
  <use x="70" y="576.40625" xlink:href="#l"/>
  <use x="74.011719" y="576.40625" xlink:href="#c"/>
  <use x="76.710938" y="576.40625" xlink:href="#b"/>
  <use x="80.417969" y="576.40625" xlink:href="#j"/>
  <use x="84.109375" y="576.40625" xlink:href="#a"/>
  <use x="86.722656" y="576.40625" xlink:href="#b"/>
  <use x="90.433594" y="576.40625" xlink:href="#i"/>
  <use x="96.25" y="576.40625" xlink:href="#n"/>
  <use x="100.167969" y="576.40625" xlink:href="#m"/>
  <use x="105.636719" y="576.40625" xlink:href="#l"/>
  <use x="109.648438" y="576.40625" xlink:href="#h"/>
  <use x="113.542969" y="576.40625" xlink:href="#j"/>
  <use x="117.230469" y="576.40625" xlink:href="#g"/>
  <use x="121.125" y="576.40625" xlink:href="#f"/>
  <use x="125.019531" y="576.40625" xlink:href="#a"/>
  <use x="129.535156" y="576.40625" xlink:href="#k"/>
  <use x="131.410156" y="576.40625" xlink:href="#e"/>
  <use x="136.570312" y="576.40625" xlink:href="#u"/>
  <use x="138.605469" y="576.40625" xlink:href="#g"/>
  <use x="142.5" y="576.40625" xlink:href="#i"/>
  <use x="146.414062" y="576.40625" xlink:href="#f"/>
  <use x="150.304688" y="576.40625" xlink:href="#e"/>
  <use x="153.5625" y="576.40625" xlink:href="#a"/>
  <use x="156.175781" y="576.40625" xlink:href="#c"/>
  <use x="158.871094" y="576.40625" xlink:href="#k"/>
  <use x="160.746094" y="576.40625" xlink:href="#b"/>
  <use x="164.457031" y="576.40625" xlink:href="#e"/>
  <use x="70" y="581.875" xlink:href="#t"/>
  <use x="72.378906" y="581.875" xlink:href="#c"/>
  <use x="75.078125" y="581.875" xlink:href="#d"/>
  <use x="78.832031" y="581.875" xlink:href="#s"/>
  <use x="86.4375" y="581.875" xlink:href="#a"/>
  <use x="89.050781" y="581.875" xlink:href="#h"/>
  <use x="92.941406" y="581.875" xlink:href="#b"/>
  <use x="98.554688" y="581.875" xlink:href="#r"/>
  <use x="103.132812" y="581.875" xlink:href="#d"/>
  <use x="106.890625" y="581.875" xlink:href="#f"/>
  <use x="110.785156" y="581.875" xlink:href="#g"/>
  <use x="116.582031" y="581.875" xlink:href="#q"/>
  <use x="120.589844" y="581.875" xlink:href="#c"/>
  <use x="123.285156" y="581.875" xlink:href="#d"/>
  <use x="127.042969" y="581.875" xlink:href="#p"/>
  <use x="128.917969" y="581.875" xlink:href="#b"/>
  <use x="132.625" y="581.875" xlink:href="#o"/>
  <use x="135.867188" y="581.875" xlink:href="#a"/>
 </g>
</svg>
