<?xml version="1.0" encoding="UTF-8"?>
<svg width="700pt" height="700pt" version="1.1" viewBox="0 0 700 700" xmlns="http://www.w3.org/2000/svg" xmlns:xlink="http://www.w3.org/1999/xlink">
 <defs>
  <symbol id="l" overflow="visible">
   <path d="m3.6562-0.21875c-0.1875 0.09375-0.38672 0.16797-0.59375 0.21875-0.19922 0.050781-0.40625 0.078125-0.625 0.078125-0.66797 0-1.1992-0.17969-1.5938-0.54688-0.38672-0.375-0.57812-0.87891-0.57812-1.5156 0-0.64453 0.19141-1.1484 0.57812-1.5156 0.39453-0.375 0.92578-0.5625 1.5938-0.5625 0.21875 0 0.42578 0.027344 0.625 0.078125 0.20703 0.054687 0.40625 0.125 0.59375 0.21875v0.82812c-0.1875-0.125-0.375-0.21875-0.5625-0.28125-0.17969-0.0625-0.37109-0.09375-0.57812-0.09375-0.36719 0-0.65625 0.12109-0.875 0.35938-0.21094 0.23047-0.3125 0.55469-0.3125 0.96875 0 0.40625 0.10156 0.73047 0.3125 0.96875 0.21875 0.23047 0.50781 0.34375 0.875 0.34375 0.20703 0 0.39844-0.023437 0.57812-0.078125 0.1875-0.0625 0.375-0.16016 0.5625-0.29688z"/>
  </symbol>
  <symbol id="c" overflow="visible">
   <path d="m2.6875-2.1719c-0.085938-0.039063-0.16797-0.070313-0.25-0.09375-0.085938-0.019531-0.16797-0.03125-0.25-0.03125-0.25 0-0.44531 0.085937-0.57812 0.25-0.125 0.15625-0.1875 0.38281-0.1875 0.67188v1.375h-0.96875v-2.9844h0.96875v0.48438c0.11328-0.19531 0.25-0.33594 0.40625-0.42188 0.16406-0.09375 0.35938-0.14062 0.57812-0.14062h0.10938c0.039063 0 0.09375 0.007812 0.15625 0.015625z"/>
  </symbol>
  <symbol id="b" overflow="visible">
   <path d="m3.4375-1.5v0.26562h-2.2344c0.03125 0.23047 0.11328 0.40234 0.25 0.51562 0.13281 0.10547 0.32812 0.15625 0.57812 0.15625 0.20703 0 0.41406-0.023438 0.625-0.078125 0.20703-0.0625 0.42188-0.15625 0.64062-0.28125v0.73438c-0.21875 0.09375-0.44531 0.16406-0.67188 0.20312-0.23047 0.039062-0.45312 0.0625-0.67188 0.0625-0.54297 0-0.96484-0.13281-1.2656-0.40625-0.30469-0.28125-0.45312-0.67188-0.45312-1.1719 0-0.47656 0.14453-0.85938 0.4375-1.1406 0.30078-0.28125 0.70703-0.42188 1.2188-0.42188 0.46875 0 0.84375 0.14062 1.125 0.42188s0.42188 0.66406 0.42188 1.1406zm-0.96875-0.32812c0-0.17578-0.058594-0.31641-0.17188-0.42188-0.10547-0.11328-0.24219-0.17188-0.40625-0.17188-0.1875 0-0.33984 0.054687-0.45312 0.15625-0.11719 0.10547-0.1875 0.25-0.21875 0.4375z"/>
  </symbol>
  <symbol id="j" overflow="visible">
   <path d="m1.7969-1.3438c-0.19922 0-0.35156 0.039062-0.45312 0.10938-0.09375 0.0625-0.14062 0.16406-0.14062 0.29688 0 0.11719 0.035156 0.21094 0.10938 0.28125 0.082031 0.0625 0.19531 0.09375 0.34375 0.09375 0.17578 0 0.32812-0.0625 0.45312-0.1875s0.1875-0.28516 0.1875-0.48438v-0.10938zm1.4688-0.35938v1.7031h-0.96875v-0.4375c-0.125 0.17969-0.27344 0.30859-0.4375 0.39062-0.15625 0.082031-0.35156 0.125-0.57812 0.125-0.3125 0-0.57031-0.085938-0.76562-0.26562-0.1875-0.1875-0.28125-0.42188-0.28125-0.70312 0-0.35156 0.11719-0.61328 0.35938-0.78125 0.23828-0.16406 0.61719-0.25 1.1406-0.25h0.5625v-0.0625c0-0.15625-0.0625-0.26562-0.1875-0.32812-0.11719-0.070312-0.29688-0.10938-0.54688-0.10938-0.21094 0-0.40234 0.023437-0.57812 0.0625-0.17969 0.042969-0.33984 0.10156-0.48438 0.17188v-0.71875c0.19531-0.050781 0.39844-0.085938 0.60938-0.10938 0.20703-0.03125 0.41406-0.046875 0.625-0.046875 0.53906 0 0.92969 0.10938 1.1719 0.32812 0.23828 0.21094 0.35938 0.55469 0.35938 1.0312z"/>
  </symbol>
  <symbol id="a" overflow="visible">
   <path d="m1.5-3.8438v0.85938h0.98438v0.67188h-0.98438v1.2812c0 0.13672 0.023438 0.23047 0.078125 0.28125 0.0625 0.042969 0.17578 0.0625 0.34375 0.0625h0.48438v0.6875h-0.8125c-0.38672 0-0.65625-0.078125-0.8125-0.23438s-0.23438-0.42188-0.23438-0.79688v-1.2812h-0.46875v-0.67188h0.46875v-0.85938z"/>
  </symbol>
  <symbol id="i" overflow="visible">
   <path d="m2.5-2.5469v-1.6094h0.95312v4.1562h-0.95312v-0.4375c-0.13672 0.17969-0.28125 0.30859-0.4375 0.39062-0.15625 0.082031-0.33984 0.125-0.54688 0.125-0.375 0-0.68359-0.14453-0.92188-0.4375-0.23047-0.28906-0.34375-0.67188-0.34375-1.1406 0-0.45703 0.11328-0.83203 0.34375-1.125 0.23828-0.28906 0.54688-0.4375 0.92188-0.4375 0.19531 0 0.375 0.042969 0.53125 0.125 0.16406 0.085938 0.31641 0.21484 0.45312 0.39062zm-0.64062 1.9375c0.20703 0 0.36328-0.070313 0.46875-0.21875 0.11328-0.15625 0.17188-0.37891 0.17188-0.67188 0-0.28125-0.058594-0.49219-0.17188-0.64062-0.10547-0.15625-0.26172-0.23438-0.46875-0.23438-0.19922 0-0.35547 0.078125-0.46875 0.23438-0.10547 0.14844-0.15625 0.35938-0.15625 0.64062 0 0.29297 0.050781 0.51562 0.15625 0.67188 0.11328 0.14844 0.26953 0.21875 0.46875 0.21875z"/>
  </symbol>
  <symbol id="n" overflow="visible">
   <path d="m2.0469-0.60938c0.20703 0 0.36328-0.070313 0.46875-0.21875 0.11328-0.15625 0.17188-0.37891 0.17188-0.67188 0-0.28125-0.058594-0.49219-0.17188-0.64062-0.10547-0.15625-0.26172-0.23438-0.46875-0.23438-0.19922 0-0.35547 0.078125-0.46875 0.23438-0.10547 0.14844-0.15625 0.35938-0.15625 0.64062 0 0.29297 0.050781 0.51562 0.15625 0.67188 0.11328 0.14844 0.26953 0.21875 0.46875 0.21875zm-0.625-1.9375c0.125-0.17578 0.26562-0.30469 0.42188-0.39062 0.16406-0.082031 0.35156-0.125 0.5625-0.125 0.36328 0 0.66406 0.14844 0.90625 0.4375 0.23828 0.29297 0.35938 0.66797 0.35938 1.125 0 0.46875-0.12109 0.85156-0.35938 1.1406-0.24219 0.29297-0.54297 0.4375-0.90625 0.4375-0.21094 0-0.39844-0.042969-0.5625-0.125-0.15625-0.082031-0.29688-0.21094-0.42188-0.39062v0.4375h-0.96875v-4.1562h0.96875z"/>
  </symbol>
  <symbol id="m" overflow="visible">
   <path d="m0.0625-2.9844h0.95312l0.8125 2.0156 0.6875-2.0156h0.95312l-1.2656 3.2656c-0.125 0.33203-0.27344 0.56641-0.4375 0.70312-0.16797 0.13281-0.39062 0.20312-0.67188 0.20312h-0.54688v-0.64062h0.29688c0.16406 0 0.28516-0.027344 0.35938-0.078125 0.070313-0.054688 0.12891-0.14062 0.17188-0.26562l0.03125-0.09375z"/>
  </symbol>
  <symbol id="h" overflow="visible">
   <path d="m3.4688-1.8281v1.8281h-0.96875v-1.3906c0-0.25781-0.007812-0.4375-0.015625-0.53125-0.011719-0.10156-0.03125-0.17578-0.0625-0.21875-0.03125-0.0625-0.085937-0.10938-0.15625-0.14062-0.0625-0.039062-0.13281-0.0625-0.20312-0.0625-0.21094 0-0.37109 0.078125-0.48438 0.23438-0.10547 0.15625-0.15625 0.37109-0.15625 0.64062v1.4688h-0.96875v-4.1562h0.96875v1.6094c0.13281-0.17578 0.28516-0.30469 0.45312-0.39062 0.16406-0.082031 0.34375-0.125 0.53125-0.125 0.34375 0 0.60156 0.10938 0.78125 0.32812 0.1875 0.21094 0.28125 0.51172 0.28125 0.90625z"/>
  </symbol>
  <symbol id="g" overflow="visible">
   <path d="m3.4688-1.8281v1.8281h-0.96875v-1.3906c0-0.25781-0.007812-0.4375-0.015625-0.53125-0.011719-0.10156-0.03125-0.17578-0.0625-0.21875-0.03125-0.0625-0.085937-0.10938-0.15625-0.14062-0.0625-0.039062-0.13281-0.0625-0.20312-0.0625-0.21094 0-0.37109 0.078125-0.48438 0.23438-0.10547 0.15625-0.15625 0.37109-0.15625 0.64062v1.4688h-0.96875v-2.9844h0.96875v0.4375c0.13281-0.17578 0.28516-0.30469 0.45312-0.39062 0.16406-0.082031 0.34375-0.125 0.53125-0.125 0.34375 0 0.60156 0.10938 0.78125 0.32812 0.1875 0.21094 0.28125 0.51172 0.28125 0.90625z"/>
  </symbol>
  <symbol id="f" overflow="visible">
   <path d="m0.42188-1.1719v-1.8125h0.96875v0.29688 0.60938 0.48438c0 0.24219 0.003906 0.41797 0.015625 0.53125 0.007812 0.10547 0.03125 0.17969 0.0625 0.21875 0.039062 0.0625 0.09375 0.11719 0.15625 0.15625 0.0625 0.03125 0.13281 0.046875 0.21875 0.046875 0.19531 0 0.35156-0.078125 0.46875-0.23438 0.11328-0.15625 0.17188-0.36719 0.17188-0.64062v-1.4688h0.95312v2.9844h-0.95312v-0.4375c-0.14844 0.17969-0.30469 0.30859-0.46875 0.39062-0.15625 0.082031-0.33594 0.125-0.53125 0.125-0.34375 0-0.60938-0.10156-0.79688-0.3125-0.17969-0.21875-0.26562-0.53125-0.26562-0.9375z"/>
  </symbol>
  <symbol id="k" overflow="visible">
   <path d="m0.45312-2.9844h0.96875v2.9844h-0.96875zm0-1.1719h0.96875v0.78125h-0.96875z"/>
  </symbol>
  <symbol id="e" overflow="visible">
   <path d="m2.7969-2.8906v0.71875c-0.21094-0.082031-0.40625-0.14453-0.59375-0.1875-0.1875-0.039063-0.37109-0.0625-0.54688-0.0625-0.17969 0-0.3125 0.023437-0.40625 0.0625-0.085938 0.042969-0.125 0.10938-0.125 0.20312 0 0.085938 0.03125 0.14844 0.09375 0.1875 0.070312 0.042969 0.19531 0.074219 0.375 0.09375l0.15625 0.015625c0.48828 0.0625 0.81641 0.16797 0.98438 0.3125 0.17578 0.13672 0.26562 0.35938 0.26562 0.67188s-0.12109 0.55469-0.35938 0.71875c-0.23047 0.15625-0.57812 0.23438-1.0469 0.23438-0.19922 0-0.40625-0.015625-0.625-0.046875-0.21094-0.03125-0.42188-0.078125-0.64062-0.14062v-0.71875c0.1875 0.085937 0.37891 0.15234 0.57812 0.20312 0.20703 0.042969 0.41406 0.0625 0.625 0.0625 0.1875 0 0.32812-0.023438 0.42188-0.078125 0.09375-0.050781 0.14062-0.125 0.14062-0.21875s-0.039062-0.16016-0.10938-0.20312c-0.0625-0.039062-0.1875-0.070312-0.375-0.09375l-0.17188-0.015625c-0.42969-0.050781-0.73047-0.14844-0.90625-0.29688-0.16797-0.14453-0.25-0.36328-0.25-0.65625 0-0.32031 0.10938-0.55469 0.32812-0.70312 0.21875-0.15625 0.55078-0.23438 1-0.23438 0.17578 0 0.35938 0.015625 0.54688 0.046875 0.19531 0.023437 0.41016 0.0625 0.64062 0.125z"/>
  </symbol>
  <symbol id="u" overflow="visible">
   <path d="m0.5-3.9844h1.0312v3.9844h-1.0312z"/>
  </symbol>
  <symbol id="t" overflow="visible">
   <path d="m2.4219-4.1562v0.625h-0.51562c-0.13672 0-0.23438 0.027344-0.29688 0.078125-0.054687 0.054687-0.078125 0.13672-0.078125 0.25v0.21875h0.82812v0.67188h-0.82812v2.3125h-0.95312v-2.3125h-0.46875v-0.67188h0.46875v-0.21875c0-0.32031 0.085937-0.5625 0.26562-0.71875 0.1875-0.15625 0.47266-0.23438 0.85938-0.23438z"/>
  </symbol>
  <symbol id="d" overflow="visible">
   <path d="m1.875-2.375c-0.21094 0-0.37109 0.078125-0.48438 0.23438-0.10547 0.14844-0.15625 0.35938-0.15625 0.64062 0 0.29297 0.050781 0.51562 0.15625 0.67188 0.11328 0.14844 0.27344 0.21875 0.48438 0.21875 0.20703 0 0.36719-0.070313 0.48438-0.21875 0.11328-0.15625 0.17188-0.37891 0.17188-0.67188 0-0.28125-0.058594-0.49219-0.17188-0.64062-0.11719-0.15625-0.27734-0.23438-0.48438-0.23438zm0-0.6875c0.51953 0 0.92188 0.14062 1.2031 0.42188 0.28906 0.27344 0.4375 0.65234 0.4375 1.1406 0 0.5-0.14844 0.89062-0.4375 1.1719-0.28125 0.27344-0.68359 0.40625-1.2031 0.40625-0.51172 0-0.91406-0.13281-1.2031-0.40625-0.29297-0.28125-0.4375-0.67188-0.4375-1.1719 0-0.48828 0.14453-0.86719 0.4375-1.1406 0.28906-0.28125 0.69141-0.42188 1.2031-0.42188z"/>
  </symbol>
  <symbol id="s" overflow="visible">
   <path d="m3.2344-2.5c0.11328-0.17578 0.25391-0.3125 0.42188-0.40625 0.16406-0.10156 0.35156-0.15625 0.5625-0.15625 0.33203 0 0.58594 0.10938 0.76562 0.32812 0.1875 0.21094 0.28125 0.51172 0.28125 0.90625v1.8281h-0.96875v-1.5625c0.007813-0.019531 0.015625-0.039062 0.015625-0.0625v-0.10938c0-0.21875-0.03125-0.375-0.09375-0.46875s-0.16406-0.14062-0.29688-0.14062c-0.1875 0-0.33594 0.078125-0.4375 0.23438-0.09375 0.14844-0.14062 0.35938-0.14062 0.64062v1.4688h-0.96875v-1.5625c0-0.33203-0.03125-0.54688-0.09375-0.64062-0.054688-0.09375-0.15234-0.14062-0.29688-0.14062-0.17969 0-0.32031 0.078125-0.42188 0.23438-0.09375 0.14844-0.14062 0.35938-0.14062 0.64062v1.4688h-0.96875v-2.9844h0.96875v0.4375c0.11328-0.17578 0.24219-0.30469 0.39062-0.39062 0.15625-0.082031 0.32812-0.125 0.51562-0.125 0.20703 0 0.39062 0.054688 0.54688 0.15625 0.15625 0.09375 0.27344 0.23047 0.35938 0.40625z"/>
  </symbol>
  <symbol id="r" overflow="visible">
   <path d="m0.5-3.9844h1.1562l1.4375 2.7344v-2.7344h0.98438v3.9844h-1.1562l-1.4375-2.7344v2.7344h-0.98438z"/>
  </symbol>
  <symbol id="q" overflow="visible">
   <path d="m0.5-3.9844h1.7031c0.50781 0 0.89844 0.11719 1.1719 0.34375 0.26953 0.21875 0.40625 0.53906 0.40625 0.95312 0 0.41797-0.13672 0.74219-0.40625 0.96875-0.27344 0.21875-0.66406 0.32812-1.1719 0.32812h-0.67188v1.3906h-1.0312zm1.0312 0.75v1.1094h0.5625c0.19531 0 0.34766-0.046875 0.45312-0.14062 0.11328-0.10156 0.17188-0.24219 0.17188-0.42188 0-0.17578-0.058594-0.3125-0.17188-0.40625-0.10547-0.09375-0.25781-0.14062-0.45312-0.14062z"/>
  </symbol>
  <symbol id="p" overflow="visible">
   <path d="m0.45312-2.9844h0.96875v2.9375c0 0.39453-0.10156 0.69531-0.29688 0.90625-0.1875 0.21875-0.46484 0.32812-0.82812 0.32812h-0.48438v-0.64062h0.17188c0.17578 0 0.29688-0.042969 0.35938-0.125 0.070312-0.074219 0.10938-0.23047 0.10938-0.46875zm0-1.1719h0.96875v0.78125h-0.96875z"/>
  </symbol>
  <symbol id="o" overflow="visible">
   <path d="m2.875-2.8906v0.76562c-0.125-0.082031-0.25781-0.14453-0.39062-0.1875-0.13672-0.039062-0.27344-0.0625-0.40625-0.0625-0.27344 0-0.48047 0.078125-0.625 0.23438-0.14844 0.15625-0.21875 0.37109-0.21875 0.64062 0 0.28125 0.070313 0.5 0.21875 0.65625 0.14453 0.15625 0.35156 0.23438 0.625 0.23438 0.14453 0 0.28516-0.019531 0.42188-0.0625 0.13281-0.039063 0.25781-0.10938 0.375-0.20312v0.78125c-0.14844 0.0625-0.29688 0.10156-0.45312 0.125-0.15625 0.03125-0.3125 0.046875-0.46875 0.046875-0.54297 0-0.96484-0.13281-1.2656-0.40625-0.30469-0.28125-0.45312-0.67188-0.45312-1.1719 0-0.48828 0.14844-0.86719 0.45312-1.1406 0.30078-0.28125 0.72266-0.42188 1.2656-0.42188 0.15625 0 0.3125 0.015625 0.46875 0.046875 0.15625 0.023437 0.30469 0.0625 0.45312 0.125z"/>
  </symbol>
 </defs>
 <g>
  <path d="m524.29 165.66c-0.11719-2.25-1.7422-4.1328-3.9492-4.5742-9.0391-1.7461-18.242-2.5312-27.449-2.3398-0.25781 0.035156-0.51562-0.035156-0.71875-0.19531-0.20703-0.16016-0.33594-0.39453-0.36719-0.65234-0.078125-0.23438-0.058593-0.49219 0.054688-0.70703 0.11719-0.21875 0.3125-0.38281 0.55078-0.44922 7.8516-3.4727 16.082-6.0156 24.527-7.5781 1.3477-0.24219 2.5352-1.0312 3.2734-2.1836 0.74219-1.1523 0.96875-2.5586 0.62891-3.8867-3.2461-12.668-8.5703-24.711-15.754-35.641-0.089843-0.13672-0.1875-0.26953-0.28906-0.39453l-1.5391-1.9023c-1.1719-1.4492-3.0625-2.1133-4.8867-1.7109-12.531 2.9102-24.625 7.4766-35.953 13.578-0.85547 0.53125-1.9805 0.30469-2.5664-0.51563-0.67188-0.71484-0.66406-1.8281 0.023438-2.5312 7.1953-8.8633 15.566-16.707 24.879-23.309 1.125-0.78125 1.8711-1.9922 2.0625-3.3477 0.19531-1.3516-0.18359-2.7266-1.043-3.7891l-2.0234-2.5039h-0.003906c-11.703-14.961-28.883-24.645-47.738-26.918-9.7852-1.2617-19.605 2.0195-26.672 8.9023-7.0664 6.8828-10.602 16.613-9.5977 26.426l0.98438 10.91v0.003906c0.24219 2.7148-0.71484 5.4023-2.6211 7.3516-1.9062 1.9453-4.5742 2.9609-7.293 2.7773l-10.93-0.74609v-0.003906c-9.832-0.78906-19.488 2.9531-26.219 10.168-6.7266 7.2109-9.793 17.102-8.3242 26.855 2.6719 18.781 12.707 35.727 27.887 47.105l2.6055 2.0156h-0.003907c0.59766 0.45312 1.2891 0.76172 2.0234 0.91016-3.7773 40.531-4.6719 92.691-2.6719 155.83h-30.199c5.1641-50.465 2.9688-86.109-2.6328-111.29 4.7305-10.254 6.9258-21.492 6.4023-32.773-0.35547-9.8555-5.1914-19.012-13.133-24.859-7.9414-5.8516-18.121-7.75-27.641-5.1602l-10.605 2.75v-0.003906c-2.6367 0.68359-5.4453 0.17578-7.6797-1.3867-2.2305-1.5625-3.668-4.0273-3.9297-6.7422l-1.0469-10.906h0.003907c-0.82422-9.8281-6.0898-18.742-14.305-24.207-8.2109-5.4648-18.469-6.875-27.852-3.8359-18.094 5.6992-33.18 18.359-41.93 35.191l-1.5625 2.8984c-0.65234 1.2031-0.76953 2.6211-0.33203 3.918 0.44141 1.293 1.3984 2.3477 2.6484 2.9062 10.371 4.7773 20.043 10.941 28.746 18.328 0.80469 0.5625 1.0195 1.6562 0.49219 2.4844-0.42578 0.91406-1.4922 1.3438-2.4336 0.97656-12.258-3.9102-24.98-6.168-37.836-6.7188-1.8633-0.046875-3.5977 0.94922-4.4922 2.582l-1.1602 2.1523c-0.074218 0.14453-0.14453 0.29297-0.20703 0.44141-5.0469 12.066-8.0625 24.883-8.9219 37.934-0.089844 1.3672 0.39453 2.7109 1.3359 3.7031 0.94141 0.99609 2.2539 1.5547 3.6211 1.543 8.5859-0.015624 17.145 0.96484 25.504 2.9297 0.24219 0.023438 0.46875 0.14453 0.62109 0.33984 0.15234 0.19141 0.21875 0.44141 0.18359 0.68359 0.019531 0.25781-0.0625 0.51562-0.23438 0.71094s-0.41406 0.3125-0.67578 0.32422c-9.082 1.5117-17.98 3.9766-26.547 7.3555-2.0898 0.84375-3.3398 2.9922-3.0391 5.2266 0.51562 3.8086 1.1914 7.4883 2.0078 10.934l9.1562 38.5 0.003906-0.003907c1.5078 6.332 7.1602 10.801 13.668 10.809 0.54688 0 1.0898-0.03125 1.6328-0.09375l39.309-4.5625c3.5156-0.40625 7.2031-1.0312 10.961-1.8516 2.1992-0.48047 3.793-2.3906 3.8672-4.6406 0.24609-9.207-0.48047-18.41-2.168-27.465-0.074219-0.24609-0.046876-0.51562 0.078124-0.74219 0.125-0.23047 0.33594-0.39844 0.58594-0.46484 0.21484-0.11719 0.47266-0.14062 0.70703-0.0625 0.23047 0.078125 0.42578 0.24609 0.53125 0.46875 4.7031 7.1797 8.5586 14.887 11.477 22.961 0.45703 1.293 1.4297 2.3359 2.6875 2.8789 1.2539 0.54297 2.6797 0.53906 3.9336-0.011719 11.969-5.2734 22.984-12.488 32.598-21.355 0.12109-0.11328 0.23438-0.23047 0.34375-0.35156l1.625-1.8281c1.2383-1.3906 1.582-3.3672 0.89062-5.0977-4.9141-11.895-11.391-23.078-19.258-33.262-0.66406-0.75781-0.625-1.9023 0.089844-2.6172 0.59375-0.77734 1.6992-0.95312 2.5039-0.39062 9.918 5.6562 19.02 12.637 27.051 20.75 0.95312 0.98047 2.2695 1.5195 3.6367 1.4883 1.3672-0.027344 2.6602-0.625 3.5703-1.6484l2.1406-2.4062c1.75-1.9141 3.3945-3.9258 4.9258-6.0195 3.8242 23.453 4.7656 55.312 0.22266 98.598h-61.578v-0.003906c-1.4961 0-2.9102 0.67969-3.8438 1.8477-0.93359 1.1719-1.2852 2.6992-0.95703 4.1602l28.281 125.26c1.3984 6.3242 4.9219 11.977 9.9805 16.023 5.0586 4.043 11.352 6.2344 17.828 6.207h67.812c6.4766 0.027343 12.77-2.1641 17.832-6.207 5.0586-4.0469 8.582-9.6992 9.9805-16.027l28.281-125.26v0.003906c0.32812-1.4609-0.023438-2.9922-0.95703-4.1602-0.93359-1.168-2.3516-1.8477-3.8477-1.8477h-58.906c-2.4531-77.25-0.30078-129.92 3.7109-165.81h0.003906c5.1094-6.332 10.789-12.184 16.969-17.48 0.6875-0.69922 1.8008-0.73047 2.5312-0.078125 0.83203 0.57031 1.082 1.6875 0.56641 2.5586-5.8555 11.457-10.16 23.645-12.797 36.238-0.36328 1.8281 0.33984 3.707 1.8164 4.8477l1.9336 1.4961c0.12891 0.097656 0.26172 0.19141 0.40234 0.27734v0.003907c11.078 6.9453 23.234 12.008 35.969 14.984 1.3359 0.30859 2.7383 0.050781 3.875-0.71484 1.1328-0.76562 1.8984-1.9688 2.1094-3.3242 1.3789-8.4727 3.7461-16.754 7.0508-24.68 0.0625-0.23828 0.21875-0.44141 0.43359-0.55859 0.21875-0.12109 0.47266-0.14453 0.70703-0.070312 0.25781 0.019531 0.49609 0.14844 0.66016 0.34766 0.16406 0.19922 0.24219 0.46094 0.21094 0.71875 0.011719 9.207 0.99219 18.391 2.9336 27.391 0.48828 2.1992 2.4062 3.7812 4.6562 3.8516 1.2109 0.035157 2.4102 0.054688 3.6016 0.054688 2.5781 0 5.0938-0.085938 7.5117-0.25391l39.477-2.7578v-0.003906c7.1094-0.49609 12.723-6.2305 13.066-13.348l1.9062-39.527c0.17188-3.5391 0.15625-7.2812-0.039063-11.117zm-200.38 86.383c-7.7305-7.1719-16.25-13.445-25.395-18.695-4.8516-2.9453-11.129-1.9414-14.82 2.375-3.8008 4.2344-4.0391 10.578-0.56641 15.086 6.6797 8.668 12.305 18.102 16.766 28.094-7.3398 6.6367-15.547 12.238-24.398 16.652-2.9023-6.9648-6.4336-13.645-10.551-19.965-2.8242-4.3633-8.3359-6.1211-13.164-4.2031s-7.6289 6.9805-6.6914 12.09c1.3125 7.0977 2.0039 14.293 2.0742 21.508-2.1133 0.38281-4.1797 0.69531-6.1836 0.92578l-39.309 4.5625v0.003906c-2.1211 0.24609-4.0938-1.1367-4.5898-3.2148l-9.1562-38.5c-0.46484-1.9609-0.88281-4.0117-1.2422-6.125 6.8047-2.4023 13.801-4.2148 20.918-5.4102 5.125-0.86328 8.9219-5.2266 9.0742-10.422 0.15234-5.1914-3.3867-9.7695-8.4492-10.93-7.3477-1.7109-14.836-2.7422-22.371-3.0898 1.1211-9.8281 3.5781-19.457 7.3008-28.617 10.918 0.76953 21.703 2.832 32.133 6.1406 5.4258 1.7266 11.305-0.66797 13.984-5.6914 2.793-4.9453 1.5898-11.184-2.8398-14.738-8.0586-6.7969-16.867-12.66-26.25-17.469 7.6406-13.758 20.262-24.066 35.27-28.805 6.5547-2.168 13.746-1.2031 19.496 2.6172 5.75 3.8203 9.4258 10.074 9.9648 16.961l1.0469 10.906c0.38281 3.9688 2 7.7188 4.6211 10.723-0.44141 0.3125-0.82812 0.69922-1.1445 1.1367l-56.906 81.266 0.003906 0.003906c-0.76172 1.0664-1.0664 2.3945-0.83984 3.6875 0.22266 1.293 0.94922 2.4453 2.0273 3.1953 1.0742 0.75391 2.4023 1.0469 3.6953 0.8125 1.2891-0.23047 2.4336-0.96875 3.1797-2.0508l56.906-81.266h-0.003906c0.30859-0.44922 0.53516-0.94531 0.67969-1.4648 3.7188 1.4336 7.7969 1.6719 11.66 0.67578l10.605-2.75c6.6523-1.8477 13.785-0.53125 19.344 3.5664 5.5547 4.0977 8.9219 10.52 9.125 17.422 0.67578 15.723-4.6914 31.109-15.004 42.996zm86.938 229.67c-0.91406 4.1406-3.2188 7.8438-6.5352 10.492-3.3125 2.6484-7.4297 4.082-11.672 4.0664h-67.812c-4.2422 0.015624-8.3594-1.418-11.672-4.0664-3.3125-2.6484-5.6211-6.3516-6.5352-10.492l-26.926-119.25h158.08zm103.65-305.41-1.9062 39.527c-0.10547 2.1367-1.7891 3.8555-3.918 4.0039l-39.477 2.7578c-2.0117 0.14062-4.1016 0.21484-6.2461 0.22656l-0.003906 0.003906c-1.2617-7.1055-1.9062-14.309-1.9258-21.523 0.007813-5.2227-3.7148-9.707-8.8516-10.66-0.69922-0.13281-1.4062-0.20312-2.1172-0.20312-4.4062-0.003906-8.3672 2.6797-10 6.7695-2.8828 6.9688-5.1211 14.188-6.6914 21.566-9.5117-2.7109-18.613-6.7031-27.047-11.871 2.5391-10.645 6.3359-20.949 11.301-30.699 2.5859-5.0703 1.1836-11.266-3.3359-14.727-4.4219-3.5625-10.777-3.3906-15.004 0.39844-8.0234 6.8477-15.242 14.578-21.516 23.055-12.328-9.7852-20.441-23.918-22.668-39.496-1.0703-6.8203 1.0508-13.758 5.7617-18.809 4.707-5.0508 11.477-7.6562 18.355-7.0664l10.93 0.74609c3.9805 0.26953 7.9414-0.71484 11.336-2.8125 0.23438 0.48828 0.55078 0.93359 0.93359 1.3164l70.902 69.391h0.003906c1.9414 1.9023 5.0586 1.8672 6.9609-0.074218 0.91016-0.93359 1.418-2.1914 1.4023-3.4961s-0.54688-2.5508-1.4805-3.4648l-70.902-69.391c-0.39062-0.375-0.84375-0.68359-1.3359-0.91016 2.0234-3.4336 2.9219-7.418 2.5703-11.391l-0.98438-10.91v-0.003906c-0.73828-6.8633 1.7227-13.688 6.6719-18.504 4.9492-4.8125 11.836-7.0859 18.68-6.1641 15.621 1.8945 29.926 9.6992 39.973 21.812-8.3359 6.457-15.914 13.84-22.582 22.008-3.6992 4.3086-3.7305 10.664-0.074219 15.008 3.5547 4.4453 9.7773 5.7148 14.793 3.0195 9.6406-5.1758 19.863-9.1914 30.449-11.957 5.3477 8.3164 9.5352 17.328 12.449 26.781-7.3438 1.7266-14.512 4.125-21.418 7.1562-4.7617 2.0742-7.3984 7.2266-6.293 12.305 1.1094 5.0742 5.6445 8.6641 10.84 8.5703 7.2148-0.13672 14.43 0.35156 21.559 1.4609 0.035156 2.1445 0.003906 4.2383-0.09375 6.25z"/>
  <use x="70" y="576.40625" xlink:href="#l"/>
  <use x="74.011719" y="576.40625" xlink:href="#c"/>
  <use x="76.710938" y="576.40625" xlink:href="#b"/>
  <use x="80.417969" y="576.40625" xlink:href="#j"/>
  <use x="84.109375" y="576.40625" xlink:href="#a"/>
  <use x="86.722656" y="576.40625" xlink:href="#b"/>
  <use x="90.433594" y="576.40625" xlink:href="#i"/>
  <use x="96.25" y="576.40625" xlink:href="#n"/>
  <use x="100.167969" y="576.40625" xlink:href="#m"/>
  <use x="105.636719" y="576.40625" xlink:href="#l"/>
  <use x="109.648438" y="576.40625" xlink:href="#h"/>
  <use x="113.542969" y="576.40625" xlink:href="#j"/>
  <use x="117.230469" y="576.40625" xlink:href="#g"/>
  <use x="121.125" y="576.40625" xlink:href="#f"/>
  <use x="125.019531" y="576.40625" xlink:href="#a"/>
  <use x="129.535156" y="576.40625" xlink:href="#k"/>
  <use x="131.410156" y="576.40625" xlink:href="#e"/>
  <use x="136.570312" y="576.40625" xlink:href="#u"/>
  <use x="138.605469" y="576.40625" xlink:href="#g"/>
  <use x="142.5" y="576.40625" xlink:href="#i"/>
  <use x="146.414062" y="576.40625" xlink:href="#f"/>
  <use x="150.304688" y="576.40625" xlink:href="#e"/>
  <use x="153.5625" y="576.40625" xlink:href="#a"/>
  <use x="156.175781" y="576.40625" xlink:href="#c"/>
  <use x="158.871094" y="576.40625" xlink:href="#k"/>
  <use x="160.746094" y="576.40625" xlink:href="#b"/>
  <use x="164.457031" y="576.40625" xlink:href="#e"/>
  <use x="70" y="581.875" xlink:href="#t"/>
  <use x="72.378906" y="581.875" xlink:href="#c"/>
  <use x="75.078125" y="581.875" xlink:href="#d"/>
  <use x="78.832031" y="581.875" xlink:href="#s"/>
  <use x="86.4375" y="581.875" xlink:href="#a"/>
  <use x="89.050781" y="581.875" xlink:href="#h"/>
  <use x="92.941406" y="581.875" xlink:href="#b"/>
  <use x="98.554688" y="581.875" xlink:href="#r"/>
  <use x="103.132812" y="581.875" xlink:href="#d"/>
  <use x="106.890625" y="581.875" xlink:href="#f"/>
  <use x="110.785156" y="581.875" xlink:href="#g"/>
  <use x="116.582031" y="581.875" xlink:href="#q"/>
  <use x="120.589844" y="581.875" xlink:href="#c"/>
  <use x="123.285156" y="581.875" xlink:href="#d"/>
  <use x="127.042969" y="581.875" xlink:href="#p"/>
  <use x="128.917969" y="581.875" xlink:href="#b"/>
  <use x="132.625" y="581.875" xlink:href="#o"/>
  <use x="135.867188" y="581.875" xlink:href="#a"/>
 </g>
</svg>
