<?xml version="1.0" encoding="UTF-8"?>
<svg width="700pt" height="700pt" version="1.1" viewBox="0 0 700 700" xmlns="http://www.w3.org/2000/svg" xmlns:xlink="http://www.w3.org/1999/xlink">
 <defs>
  <symbol id="l" overflow="visible">
   <path d="m3.6562-0.21875c-0.1875 0.09375-0.38672 0.16797-0.59375 0.21875-0.19922 0.050781-0.40625 0.078125-0.625 0.078125-0.66797 0-1.1992-0.17969-1.5938-0.54688-0.38672-0.375-0.57812-0.87891-0.57812-1.5156 0-0.64453 0.19141-1.1484 0.57812-1.5156 0.39453-0.375 0.92578-0.5625 1.5938-0.5625 0.21875 0 0.42578 0.027344 0.625 0.078125 0.20703 0.054687 0.40625 0.125 0.59375 0.21875v0.82812c-0.1875-0.125-0.375-0.21875-0.5625-0.28125-0.17969-0.0625-0.37109-0.09375-0.57812-0.09375-0.36719 0-0.65625 0.12109-0.875 0.35938-0.21094 0.23047-0.3125 0.55469-0.3125 0.96875 0 0.40625 0.10156 0.73047 0.3125 0.96875 0.21875 0.23047 0.50781 0.34375 0.875 0.34375 0.20703 0 0.39844-0.023437 0.57812-0.078125 0.1875-0.0625 0.375-0.16016 0.5625-0.29688z"/>
  </symbol>
  <symbol id="c" overflow="visible">
   <path d="m2.6875-2.1719c-0.085938-0.039063-0.16797-0.070313-0.25-0.09375-0.085938-0.019531-0.16797-0.03125-0.25-0.03125-0.25 0-0.44531 0.085937-0.57812 0.25-0.125 0.15625-0.1875 0.38281-0.1875 0.67188v1.375h-0.96875v-2.9844h0.96875v0.48438c0.11328-0.19531 0.25-0.33594 0.40625-0.42188 0.16406-0.09375 0.35938-0.14062 0.57812-0.14062h0.10938c0.039063 0 0.09375 0.007812 0.15625 0.015625z"/>
  </symbol>
  <symbol id="b" overflow="visible">
   <path d="m3.4375-1.5v0.26562h-2.2344c0.03125 0.23047 0.11328 0.40234 0.25 0.51562 0.13281 0.10547 0.32812 0.15625 0.57812 0.15625 0.20703 0 0.41406-0.023438 0.625-0.078125 0.20703-0.0625 0.42188-0.15625 0.64062-0.28125v0.73438c-0.21875 0.09375-0.44531 0.16406-0.67188 0.20312-0.23047 0.039062-0.45312 0.0625-0.67188 0.0625-0.54297 0-0.96484-0.13281-1.2656-0.40625-0.30469-0.28125-0.45312-0.67188-0.45312-1.1719 0-0.47656 0.14453-0.85938 0.4375-1.1406 0.30078-0.28125 0.70703-0.42188 1.2188-0.42188 0.46875 0 0.84375 0.14062 1.125 0.42188s0.42188 0.66406 0.42188 1.1406zm-0.96875-0.32812c0-0.17578-0.058594-0.31641-0.17188-0.42188-0.10547-0.11328-0.24219-0.17188-0.40625-0.17188-0.1875 0-0.33984 0.054687-0.45312 0.15625-0.11719 0.10547-0.1875 0.25-0.21875 0.4375z"/>
  </symbol>
  <symbol id="j" overflow="visible">
   <path d="m1.7969-1.3438c-0.19922 0-0.35156 0.039062-0.45312 0.10938-0.09375 0.0625-0.14062 0.16406-0.14062 0.29688 0 0.11719 0.035156 0.21094 0.10938 0.28125 0.082031 0.0625 0.19531 0.09375 0.34375 0.09375 0.17578 0 0.32812-0.0625 0.45312-0.1875s0.1875-0.28516 0.1875-0.48438v-0.10938zm1.4688-0.35938v1.7031h-0.96875v-0.4375c-0.125 0.17969-0.27344 0.30859-0.4375 0.39062-0.15625 0.082031-0.35156 0.125-0.57812 0.125-0.3125 0-0.57031-0.085938-0.76562-0.26562-0.1875-0.1875-0.28125-0.42188-0.28125-0.70312 0-0.35156 0.11719-0.61328 0.35938-0.78125 0.23828-0.16406 0.61719-0.25 1.1406-0.25h0.5625v-0.0625c0-0.15625-0.0625-0.26562-0.1875-0.32812-0.11719-0.070312-0.29688-0.10938-0.54688-0.10938-0.21094 0-0.40234 0.023437-0.57812 0.0625-0.17969 0.042969-0.33984 0.10156-0.48438 0.17188v-0.71875c0.19531-0.050781 0.39844-0.085938 0.60938-0.10938 0.20703-0.03125 0.41406-0.046875 0.625-0.046875 0.53906 0 0.92969 0.10938 1.1719 0.32812 0.23828 0.21094 0.35938 0.55469 0.35938 1.0312z"/>
  </symbol>
  <symbol id="a" overflow="visible">
   <path d="m1.5-3.8438v0.85938h0.98438v0.67188h-0.98438v1.2812c0 0.13672 0.023438 0.23047 0.078125 0.28125 0.0625 0.042969 0.17578 0.0625 0.34375 0.0625h0.48438v0.6875h-0.8125c-0.38672 0-0.65625-0.078125-0.8125-0.23438s-0.23438-0.42188-0.23438-0.79688v-1.2812h-0.46875v-0.67188h0.46875v-0.85938z"/>
  </symbol>
  <symbol id="i" overflow="visible">
   <path d="m2.5-2.5469v-1.6094h0.95312v4.1562h-0.95312v-0.4375c-0.13672 0.17969-0.28125 0.30859-0.4375 0.39062-0.15625 0.082031-0.33984 0.125-0.54688 0.125-0.375 0-0.68359-0.14453-0.92188-0.4375-0.23047-0.28906-0.34375-0.67188-0.34375-1.1406 0-0.45703 0.11328-0.83203 0.34375-1.125 0.23828-0.28906 0.54688-0.4375 0.92188-0.4375 0.19531 0 0.375 0.042969 0.53125 0.125 0.16406 0.085938 0.31641 0.21484 0.45312 0.39062zm-0.64062 1.9375c0.20703 0 0.36328-0.070313 0.46875-0.21875 0.11328-0.15625 0.17188-0.37891 0.17188-0.67188 0-0.28125-0.058594-0.49219-0.17188-0.64062-0.10547-0.15625-0.26172-0.23438-0.46875-0.23438-0.19922 0-0.35547 0.078125-0.46875 0.23438-0.10547 0.14844-0.15625 0.35938-0.15625 0.64062 0 0.29297 0.050781 0.51562 0.15625 0.67188 0.11328 0.14844 0.26953 0.21875 0.46875 0.21875z"/>
  </symbol>
  <symbol id="n" overflow="visible">
   <path d="m2.0469-0.60938c0.20703 0 0.36328-0.070313 0.46875-0.21875 0.11328-0.15625 0.17188-0.37891 0.17188-0.67188 0-0.28125-0.058594-0.49219-0.17188-0.64062-0.10547-0.15625-0.26172-0.23438-0.46875-0.23438-0.19922 0-0.35547 0.078125-0.46875 0.23438-0.10547 0.14844-0.15625 0.35938-0.15625 0.64062 0 0.29297 0.050781 0.51562 0.15625 0.67188 0.11328 0.14844 0.26953 0.21875 0.46875 0.21875zm-0.625-1.9375c0.125-0.17578 0.26562-0.30469 0.42188-0.39062 0.16406-0.082031 0.35156-0.125 0.5625-0.125 0.36328 0 0.66406 0.14844 0.90625 0.4375 0.23828 0.29297 0.35938 0.66797 0.35938 1.125 0 0.46875-0.12109 0.85156-0.35938 1.1406-0.24219 0.29297-0.54297 0.4375-0.90625 0.4375-0.21094 0-0.39844-0.042969-0.5625-0.125-0.15625-0.082031-0.29688-0.21094-0.42188-0.39062v0.4375h-0.96875v-4.1562h0.96875z"/>
  </symbol>
  <symbol id="m" overflow="visible">
   <path d="m0.0625-2.9844h0.95312l0.8125 2.0156 0.6875-2.0156h0.95312l-1.2656 3.2656c-0.125 0.33203-0.27344 0.56641-0.4375 0.70312-0.16797 0.13281-0.39062 0.20312-0.67188 0.20312h-0.54688v-0.64062h0.29688c0.16406 0 0.28516-0.027344 0.35938-0.078125 0.070313-0.054688 0.12891-0.14062 0.17188-0.26562l0.03125-0.09375z"/>
  </symbol>
  <symbol id="h" overflow="visible">
   <path d="m3.4688-1.8281v1.8281h-0.96875v-1.3906c0-0.25781-0.007812-0.4375-0.015625-0.53125-0.011719-0.10156-0.03125-0.17578-0.0625-0.21875-0.03125-0.0625-0.085937-0.10938-0.15625-0.14062-0.0625-0.039062-0.13281-0.0625-0.20312-0.0625-0.21094 0-0.37109 0.078125-0.48438 0.23438-0.10547 0.15625-0.15625 0.37109-0.15625 0.64062v1.4688h-0.96875v-4.1562h0.96875v1.6094c0.13281-0.17578 0.28516-0.30469 0.45312-0.39062 0.16406-0.082031 0.34375-0.125 0.53125-0.125 0.34375 0 0.60156 0.10938 0.78125 0.32812 0.1875 0.21094 0.28125 0.51172 0.28125 0.90625z"/>
  </symbol>
  <symbol id="g" overflow="visible">
   <path d="m3.4688-1.8281v1.8281h-0.96875v-1.3906c0-0.25781-0.007812-0.4375-0.015625-0.53125-0.011719-0.10156-0.03125-0.17578-0.0625-0.21875-0.03125-0.0625-0.085937-0.10938-0.15625-0.14062-0.0625-0.039062-0.13281-0.0625-0.20312-0.0625-0.21094 0-0.37109 0.078125-0.48438 0.23438-0.10547 0.15625-0.15625 0.37109-0.15625 0.64062v1.4688h-0.96875v-2.9844h0.96875v0.4375c0.13281-0.17578 0.28516-0.30469 0.45312-0.39062 0.16406-0.082031 0.34375-0.125 0.53125-0.125 0.34375 0 0.60156 0.10938 0.78125 0.32812 0.1875 0.21094 0.28125 0.51172 0.28125 0.90625z"/>
  </symbol>
  <symbol id="f" overflow="visible">
   <path d="m0.42188-1.1719v-1.8125h0.96875v0.29688 0.60938 0.48438c0 0.24219 0.003906 0.41797 0.015625 0.53125 0.007812 0.10547 0.03125 0.17969 0.0625 0.21875 0.039062 0.0625 0.09375 0.11719 0.15625 0.15625 0.0625 0.03125 0.13281 0.046875 0.21875 0.046875 0.19531 0 0.35156-0.078125 0.46875-0.23438 0.11328-0.15625 0.17188-0.36719 0.17188-0.64062v-1.4688h0.95312v2.9844h-0.95312v-0.4375c-0.14844 0.17969-0.30469 0.30859-0.46875 0.39062-0.15625 0.082031-0.33594 0.125-0.53125 0.125-0.34375 0-0.60938-0.10156-0.79688-0.3125-0.17969-0.21875-0.26562-0.53125-0.26562-0.9375z"/>
  </symbol>
  <symbol id="k" overflow="visible">
   <path d="m0.45312-2.9844h0.96875v2.9844h-0.96875zm0-1.1719h0.96875v0.78125h-0.96875z"/>
  </symbol>
  <symbol id="e" overflow="visible">
   <path d="m2.7969-2.8906v0.71875c-0.21094-0.082031-0.40625-0.14453-0.59375-0.1875-0.1875-0.039063-0.37109-0.0625-0.54688-0.0625-0.17969 0-0.3125 0.023437-0.40625 0.0625-0.085938 0.042969-0.125 0.10938-0.125 0.20312 0 0.085938 0.03125 0.14844 0.09375 0.1875 0.070312 0.042969 0.19531 0.074219 0.375 0.09375l0.15625 0.015625c0.48828 0.0625 0.81641 0.16797 0.98438 0.3125 0.17578 0.13672 0.26562 0.35938 0.26562 0.67188s-0.12109 0.55469-0.35938 0.71875c-0.23047 0.15625-0.57812 0.23438-1.0469 0.23438-0.19922 0-0.40625-0.015625-0.625-0.046875-0.21094-0.03125-0.42188-0.078125-0.64062-0.14062v-0.71875c0.1875 0.085937 0.37891 0.15234 0.57812 0.20312 0.20703 0.042969 0.41406 0.0625 0.625 0.0625 0.1875 0 0.32812-0.023438 0.42188-0.078125 0.09375-0.050781 0.14062-0.125 0.14062-0.21875s-0.039062-0.16016-0.10938-0.20312c-0.0625-0.039062-0.1875-0.070312-0.375-0.09375l-0.17188-0.015625c-0.42969-0.050781-0.73047-0.14844-0.90625-0.29688-0.16797-0.14453-0.25-0.36328-0.25-0.65625 0-0.32031 0.10938-0.55469 0.32812-0.70312 0.21875-0.15625 0.55078-0.23438 1-0.23438 0.17578 0 0.35938 0.015625 0.54688 0.046875 0.19531 0.023437 0.41016 0.0625 0.64062 0.125z"/>
  </symbol>
  <symbol id="u" overflow="visible">
   <path d="m0.5-3.9844h1.0312v3.9844h-1.0312z"/>
  </symbol>
  <symbol id="t" overflow="visible">
   <path d="m2.4219-4.1562v0.625h-0.51562c-0.13672 0-0.23438 0.027344-0.29688 0.078125-0.054687 0.054687-0.078125 0.13672-0.078125 0.25v0.21875h0.82812v0.67188h-0.82812v2.3125h-0.95312v-2.3125h-0.46875v-0.67188h0.46875v-0.21875c0-0.32031 0.085937-0.5625 0.26562-0.71875 0.1875-0.15625 0.47266-0.23438 0.85938-0.23438z"/>
  </symbol>
  <symbol id="d" overflow="visible">
   <path d="m1.875-2.375c-0.21094 0-0.37109 0.078125-0.48438 0.23438-0.10547 0.14844-0.15625 0.35938-0.15625 0.64062 0 0.29297 0.050781 0.51562 0.15625 0.67188 0.11328 0.14844 0.27344 0.21875 0.48438 0.21875 0.20703 0 0.36719-0.070313 0.48438-0.21875 0.11328-0.15625 0.17188-0.37891 0.17188-0.67188 0-0.28125-0.058594-0.49219-0.17188-0.64062-0.11719-0.15625-0.27734-0.23438-0.48438-0.23438zm0-0.6875c0.51953 0 0.92188 0.14062 1.2031 0.42188 0.28906 0.27344 0.4375 0.65234 0.4375 1.1406 0 0.5-0.14844 0.89062-0.4375 1.1719-0.28125 0.27344-0.68359 0.40625-1.2031 0.40625-0.51172 0-0.91406-0.13281-1.2031-0.40625-0.29297-0.28125-0.4375-0.67188-0.4375-1.1719 0-0.48828 0.14453-0.86719 0.4375-1.1406 0.28906-0.28125 0.69141-0.42188 1.2031-0.42188z"/>
  </symbol>
  <symbol id="s" overflow="visible">
   <path d="m3.2344-2.5c0.11328-0.17578 0.25391-0.3125 0.42188-0.40625 0.16406-0.10156 0.35156-0.15625 0.5625-0.15625 0.33203 0 0.58594 0.10938 0.76562 0.32812 0.1875 0.21094 0.28125 0.51172 0.28125 0.90625v1.8281h-0.96875v-1.5625c0.007813-0.019531 0.015625-0.039062 0.015625-0.0625v-0.10938c0-0.21875-0.03125-0.375-0.09375-0.46875s-0.16406-0.14062-0.29688-0.14062c-0.1875 0-0.33594 0.078125-0.4375 0.23438-0.09375 0.14844-0.14062 0.35938-0.14062 0.64062v1.4688h-0.96875v-1.5625c0-0.33203-0.03125-0.54688-0.09375-0.64062-0.054688-0.09375-0.15234-0.14062-0.29688-0.14062-0.17969 0-0.32031 0.078125-0.42188 0.23438-0.09375 0.14844-0.14062 0.35938-0.14062 0.64062v1.4688h-0.96875v-2.9844h0.96875v0.4375c0.11328-0.17578 0.24219-0.30469 0.39062-0.39062 0.15625-0.082031 0.32812-0.125 0.51562-0.125 0.20703 0 0.39062 0.054688 0.54688 0.15625 0.15625 0.09375 0.27344 0.23047 0.35938 0.40625z"/>
  </symbol>
  <symbol id="r" overflow="visible">
   <path d="m0.5-3.9844h1.1562l1.4375 2.7344v-2.7344h0.98438v3.9844h-1.1562l-1.4375-2.7344v2.7344h-0.98438z"/>
  </symbol>
  <symbol id="q" overflow="visible">
   <path d="m0.5-3.9844h1.7031c0.50781 0 0.89844 0.11719 1.1719 0.34375 0.26953 0.21875 0.40625 0.53906 0.40625 0.95312 0 0.41797-0.13672 0.74219-0.40625 0.96875-0.27344 0.21875-0.66406 0.32812-1.1719 0.32812h-0.67188v1.3906h-1.0312zm1.0312 0.75v1.1094h0.5625c0.19531 0 0.34766-0.046875 0.45312-0.14062 0.11328-0.10156 0.17188-0.24219 0.17188-0.42188 0-0.17578-0.058594-0.3125-0.17188-0.40625-0.10547-0.09375-0.25781-0.14062-0.45312-0.14062z"/>
  </symbol>
  <symbol id="p" overflow="visible">
   <path d="m0.45312-2.9844h0.96875v2.9375c0 0.39453-0.10156 0.69531-0.29688 0.90625-0.1875 0.21875-0.46484 0.32812-0.82812 0.32812h-0.48438v-0.64062h0.17188c0.17578 0 0.29688-0.042969 0.35938-0.125 0.070312-0.074219 0.10938-0.23047 0.10938-0.46875zm0-1.1719h0.96875v0.78125h-0.96875z"/>
  </symbol>
  <symbol id="o" overflow="visible">
   <path d="m2.875-2.8906v0.76562c-0.125-0.082031-0.25781-0.14453-0.39062-0.1875-0.13672-0.039062-0.27344-0.0625-0.40625-0.0625-0.27344 0-0.48047 0.078125-0.625 0.23438-0.14844 0.15625-0.21875 0.37109-0.21875 0.64062 0 0.28125 0.070313 0.5 0.21875 0.65625 0.14453 0.15625 0.35156 0.23438 0.625 0.23438 0.14453 0 0.28516-0.019531 0.42188-0.0625 0.13281-0.039063 0.25781-0.10938 0.375-0.20312v0.78125c-0.14844 0.0625-0.29688 0.10156-0.45312 0.125-0.15625 0.03125-0.3125 0.046875-0.46875 0.046875-0.54297 0-0.96484-0.13281-1.2656-0.40625-0.30469-0.28125-0.45312-0.67188-0.45312-1.1719 0-0.48828 0.14844-0.86719 0.45312-1.1406 0.30078-0.28125 0.72266-0.42188 1.2656-0.42188 0.15625 0 0.3125 0.015625 0.46875 0.046875 0.15625 0.023437 0.30469 0.0625 0.45312 0.125z"/>
  </symbol>
 </defs>
 <g>
  <path d="m492.39 260.12c0-2.7188-2.2031-4.9219-4.9219-4.9219-29.41 0.039062-57.91 10.199-80.715 28.773-22.801 18.574-38.516 44.434-44.5 73.23-6.1367-13.828-16.152-25.582-28.832-33.836-12.684-8.2539-27.484-12.656-42.613-12.672h-10.684c-2.7188 0-4.9219 2.2031-4.9219 4.9219v10.684c0.023438 20.723 8.2695 40.594 22.922 55.246 14.656 14.656 34.523 22.898 55.25 22.922h6.2578v34.32c-27.02 0.85547-53.297 9.0156-76.051 23.609-1.1172 0.69531-1.9102 1.8125-2.1992 3.0977-0.28906 1.2852-0.050781 2.6328 0.66016 3.7422 0.71094 1.1055 1.8398 1.8828 3.1289 2.1562 1.2891 0.26953 2.6328 0.011719 3.7305-0.71484 22.582-14.457 48.836-22.141 75.652-22.141 26.812 0 53.066 7.6836 75.648 22.141 1.0977 0.72266 2.4414 0.97266 3.7266 0.70312 1.2852-0.27344 2.4062-1.0508 3.1172-2.1562 0.71094-1.1055 0.94922-2.4492 0.66406-3.7344-0.28906-1.2812-1.0742-2.3945-2.1875-3.0938-22.754-14.594-49.031-22.754-76.047-23.609v-50.934c33.012-1.3086 64.242-15.336 87.152-39.145 22.906-23.805 35.723-55.551 35.762-88.59zm-9.9492 5.0273c-1.2422 28.219-12.547 55.059-31.871 75.656-19.32 20.602-45.383 33.598-73.465 36.641l52.387-52.387c0.93359-0.91797 1.4648-2.1758 1.4688-3.4883s-0.51172-2.5703-1.4414-3.5c-0.92578-0.92969-2.1875-1.4453-3.5-1.4414s-2.5664 0.53516-3.4883 1.4688l-52.387 52.387c3.043-28.082 16.039-54.145 36.641-73.465 20.602-19.324 47.441-30.629 75.656-31.871zm-123.3 129.48h-5.7617c-18.113-0.019531-35.48-7.2227-48.293-20.031-12.809-12.812-20.012-30.18-20.035-48.293v-5.7617h5.7617c18.117 0.019532 35.484 7.2266 48.293 20.035 12.809 12.809 20.016 30.176 20.035 48.289z"/>
  <path d="m345.16 151.41c1.3008 0.39844 2.7109 0.25781 3.9102-0.38281 1.2031-0.64062 2.1016-1.7383 2.4961-3.0391l6.9609-22.941c0.82422-2.7148-0.71094-5.582-3.4258-6.4062-2.7148-0.82422-5.582 0.70703-6.4062 3.4219l-6.9609 22.941c-0.82422 2.7148 0.71094 5.582 3.4258 6.4062z"/>
  <path d="m331.24 197.29c1.3047 0.39453 2.7109 0.25781 3.9141-0.38281 1.2031-0.64453 2.0977-1.7383 2.4922-3.043l6.9609-22.941c0.82422-2.7148-0.70703-5.582-3.4219-6.4062s-5.582 0.71094-6.4062 3.4258l-6.9609 22.941v-0.003907c-0.39844 1.3047-0.25781 2.7109 0.38281 3.9141 0.64453 1.2031 1.7344 2.0977 3.0391 2.4961z"/>
  <path d="m317.32 243.17c1.3047 0.39844 2.7109 0.25781 3.9141-0.38281 1.1992-0.64453 2.0977-1.7383 2.4922-3.0391l6.9609-22.941c0.40234-1.3047 0.26562-2.7148-0.375-3.9219-0.64453-1.2031-1.7383-2.1016-3.043-2.5-1.3086-0.39453-2.7188-0.25781-3.9219 0.38672-1.2031 0.64844-2.0977 1.7461-2.4922 3.0508l-6.9609 22.941c-0.82031 2.7148 0.71094 5.582 3.4258 6.4062z"/>
  <path d="m313.34 256.28c-2.7148-0.82422-5.582 0.71094-6.4062 3.4258l-6.9609 22.941v-0.003907c-0.82422 2.7148 0.71094 5.5859 3.4258 6.4102 2.7148 0.82031 5.582-0.71094 6.4062-3.4258l6.9609-22.941c0.82422-2.7148-0.71094-5.582-3.4258-6.4062z"/>
  <path d="m299.94 151.41c1.3047 0.39844 2.7109 0.25781 3.9141-0.38281s2.0977-1.7383 2.4922-3.0391l6.9609-22.941c0.82422-2.7148-0.70703-5.582-3.4219-6.4062-2.7148-0.82422-5.582 0.70703-6.4062 3.4219l-6.9609 22.941c-0.82422 2.7148 0.70703 5.582 3.4219 6.4062z"/>
  <path d="m286.02 197.29c1.3047 0.39453 2.7109 0.25781 3.9141-0.38281 1.1992-0.64453 2.0977-1.7383 2.4922-3.043l6.9609-22.941c0.40234-1.3047 0.26562-2.7148-0.375-3.918-0.64453-1.207-1.7383-2.1055-3.043-2.5039-1.3086-0.39453-2.7188-0.25391-3.9219 0.39062s-2.0977 1.7422-2.4922 3.0508l-6.9609 22.941v-0.003907c-0.39453 1.3047-0.25391 2.7109 0.38672 3.9141s1.7344 2.0977 3.0391 2.4961z"/>
  <path d="m278.5 239.75 6.9609-22.941c0.39844-1.3047 0.26172-2.7148-0.37891-3.9219-0.64063-1.2031-1.7344-2.1016-3.043-2.5-1.3047-0.39453-2.7148-0.25781-3.918 0.38672-1.2031 0.64844-2.0977 1.7461-2.4922 3.0508l-6.9609 22.941c-0.39453 1.3047-0.25781 2.7109 0.38672 3.9102 0.64062 1.2031 1.7344 2.1016 3.0391 2.4961 2.7148 0.82422 5.582-0.71094 6.4062-3.4219z"/>
  <path d="m268.12 256.28c-2.7148-0.82031-5.582 0.71094-6.4062 3.4258l-6.9609 22.941v-0.003907c-0.82422 2.7148 0.70703 5.5859 3.4219 6.4102 2.7148 0.82031 5.582-0.71094 6.4062-3.4258l6.9609-22.941c0.82422-2.7148-0.70703-5.582-3.4219-6.4062z"/>
  <path d="m362.54 243.17c1.3047 0.39844 2.7109 0.25781 3.9141-0.38281 1.2031-0.64453 2.0977-1.7383 2.4922-3.0391l6.9609-22.941c0.40234-1.3047 0.26562-2.7148-0.375-3.9219-0.64062-1.2031-1.7383-2.1016-3.043-2.5-1.3047-0.39453-2.7148-0.25781-3.918 0.38672-1.2031 0.64844-2.1016 1.7461-2.4922 3.0508l-6.9609 22.941c-0.82422 2.7148 0.70703 5.582 3.4219 6.4062z"/>
  <path d="m358.56 256.28c-2.7148-0.82031-5.582 0.71094-6.4102 3.4258l-6.9609 22.941v-0.003907c-0.82031 2.7148 0.71094 5.5859 3.4258 6.4102 2.7148 0.82031 5.582-0.71094 6.4062-3.4258l6.9609-22.941c0.82422-2.7148-0.70703-5.582-3.4219-6.4062z"/>
  <path d="m376.46 197.29c1.3008 0.39453 2.7109 0.25781 3.9102-0.38281 1.2031-0.64453 2.1016-1.7383 2.4961-3.043l6.9609-22.941c0.39844-1.3047 0.26172-2.7148-0.37891-3.918-0.64062-1.207-1.7344-2.1055-3.043-2.5039-1.3047-0.39453-2.7148-0.25391-3.918 0.39062s-2.0977 1.7422-2.4922 3.0508l-6.9609 22.941v-0.003907c-0.82422 2.7148 0.71094 5.5859 3.4258 6.4102z"/>
  <path d="m390.38 151.41c1.3047 0.39844 2.7109 0.25781 3.9141-0.38281 1.1992-0.64062 2.0977-1.7383 2.4922-3.0391l6.9609-22.941c0.39844-1.3047 0.26562-2.7148-0.37891-3.918-0.64062-1.207-1.7344-2.1055-3.0391-2.5039-1.3086-0.39453-2.7188-0.25391-3.918 0.39062-1.2031 0.64453-2.1016 1.7422-2.4961 3.0469l-6.9609 22.941c-0.82422 2.7148 0.71094 5.582 3.4258 6.4062z"/>
  <path d="m236.64 210.4c-2.7148-0.82422-5.582 0.71094-6.4102 3.4219l-6.9609 22.941c-0.39453 1.3047-0.25391 2.7109 0.38672 3.9102 0.64062 1.2031 1.7344 2.1016 3.0391 2.4961 2.7148 0.82422 5.582-0.71094 6.4062-3.4219l6.9609-22.941c0.39453-1.3047 0.25781-2.7109-0.38281-3.9141-0.64453-1.1992-1.7383-2.0977-3.0391-2.4922z"/>
  <path d="m222.72 256.28c-2.7148-0.82031-5.582 0.71094-6.4062 3.4258l-6.9609 22.941v-0.003907c-0.39844 1.3047-0.26562 2.7188 0.37891 3.9219 0.64062 1.2031 1.7344 2.1055 3.043 2.5 1.3047 0.39844 2.7148 0.25781 3.918-0.38672 1.2031-0.64453 2.0977-1.7422 2.4922-3.0508l6.9609-22.941c0.39453-1.3008 0.25781-2.7109-0.38672-3.9102-0.64062-1.2031-1.7344-2.1016-3.0391-2.4961z"/>
  <path d="m273.72 178.68c6.5117-10.617 6.9609-23.875 1.1836-34.91l-27.262-52.578c-0.84766-1.6328-2.5312-2.6562-4.3711-2.6562-1.8359 0-3.5234 1.0234-4.3672 2.6562l-27.262 52.578h-0.003906c-5.7266 11.047-5.2734 24.281 1.1875 34.91 6.4648 10.633 18.004 17.121 30.445 17.121 12.445 0 23.984-6.4883 30.449-17.121zm-30.445 7.2773h-0.003906c-9.0039 0-17.355-4.6953-22.035-12.391-4.6758-7.6953-5-17.27-0.85547-25.266l22.895-44.152 22.895 44.152h-0.003906c4.1445 7.9961 3.8203 17.57-0.85938 25.266-4.6758 7.6953-13.031 12.391-22.035 12.391z"/>
  <path d="m251.46 149.42c-2.4141 1.25-3.3555 4.2227-2.1055 6.6328 1.4414 2.7773 1.3281 6.1055-0.29688 8.7773s-4.5273 4.3047-7.6562 4.3047c-2.7148 0-4.9219 2.2031-4.9219 4.9219s2.207 4.9219 4.9219 4.9219c6.5664 0 12.656-3.4258 16.066-9.0352s3.6484-12.594 0.625-18.422c-0.59766-1.1562-1.6367-2.0312-2.8789-2.4258-1.2461-0.39453-2.5977-0.27734-3.7539 0.32422z"/>
  <use x="70" y="576.40625" xlink:href="#l"/>
  <use x="74.011719" y="576.40625" xlink:href="#c"/>
  <use x="76.710938" y="576.40625" xlink:href="#b"/>
  <use x="80.417969" y="576.40625" xlink:href="#j"/>
  <use x="84.109375" y="576.40625" xlink:href="#a"/>
  <use x="86.722656" y="576.40625" xlink:href="#b"/>
  <use x="90.433594" y="576.40625" xlink:href="#i"/>
  <use x="96.25" y="576.40625" xlink:href="#n"/>
  <use x="100.167969" y="576.40625" xlink:href="#m"/>
  <use x="105.636719" y="576.40625" xlink:href="#l"/>
  <use x="109.648438" y="576.40625" xlink:href="#h"/>
  <use x="113.542969" y="576.40625" xlink:href="#j"/>
  <use x="117.230469" y="576.40625" xlink:href="#g"/>
  <use x="121.125" y="576.40625" xlink:href="#f"/>
  <use x="125.019531" y="576.40625" xlink:href="#a"/>
  <use x="129.535156" y="576.40625" xlink:href="#k"/>
  <use x="131.410156" y="576.40625" xlink:href="#e"/>
  <use x="136.570312" y="576.40625" xlink:href="#u"/>
  <use x="138.605469" y="576.40625" xlink:href="#g"/>
  <use x="142.5" y="576.40625" xlink:href="#i"/>
  <use x="146.414062" y="576.40625" xlink:href="#f"/>
  <use x="150.304688" y="576.40625" xlink:href="#e"/>
  <use x="153.5625" y="576.40625" xlink:href="#a"/>
  <use x="156.175781" y="576.40625" xlink:href="#c"/>
  <use x="158.871094" y="576.40625" xlink:href="#k"/>
  <use x="160.746094" y="576.40625" xlink:href="#b"/>
  <use x="164.457031" y="576.40625" xlink:href="#e"/>
  <use x="70" y="581.875" xlink:href="#t"/>
  <use x="72.378906" y="581.875" xlink:href="#c"/>
  <use x="75.078125" y="581.875" xlink:href="#d"/>
  <use x="78.832031" y="581.875" xlink:href="#s"/>
  <use x="86.4375" y="581.875" xlink:href="#a"/>
  <use x="89.050781" y="581.875" xlink:href="#h"/>
  <use x="92.941406" y="581.875" xlink:href="#b"/>
  <use x="98.554688" y="581.875" xlink:href="#r"/>
  <use x="103.132812" y="581.875" xlink:href="#d"/>
  <use x="106.890625" y="581.875" xlink:href="#f"/>
  <use x="110.785156" y="581.875" xlink:href="#g"/>
  <use x="116.582031" y="581.875" xlink:href="#q"/>
  <use x="120.589844" y="581.875" xlink:href="#c"/>
  <use x="123.285156" y="581.875" xlink:href="#d"/>
  <use x="127.042969" y="581.875" xlink:href="#p"/>
  <use x="128.917969" y="581.875" xlink:href="#b"/>
  <use x="132.625" y="581.875" xlink:href="#o"/>
  <use x="135.867188" y="581.875" xlink:href="#a"/>
 </g>
</svg>
