<?xml version="1.0" encoding="UTF-8"?>
<svg width="700pt" height="700pt" version="1.1" viewBox="0 0 700 700" xmlns="http://www.w3.org/2000/svg" xmlns:xlink="http://www.w3.org/1999/xlink">
 <defs>
  <symbol id="l" overflow="visible">
   <path d="m3.6562-0.21875c-0.1875 0.09375-0.38672 0.16797-0.59375 0.21875-0.19922 0.050781-0.40625 0.078125-0.625 0.078125-0.66797 0-1.1992-0.17969-1.5938-0.54688-0.38672-0.375-0.57812-0.87891-0.57812-1.5156 0-0.64453 0.19141-1.1484 0.57812-1.5156 0.39453-0.375 0.92578-0.5625 1.5938-0.5625 0.21875 0 0.42578 0.027344 0.625 0.078125 0.20703 0.054687 0.40625 0.125 0.59375 0.21875v0.82812c-0.1875-0.125-0.375-0.21875-0.5625-0.28125-0.17969-0.0625-0.37109-0.09375-0.57812-0.09375-0.36719 0-0.65625 0.12109-0.875 0.35938-0.21094 0.23047-0.3125 0.55469-0.3125 0.96875 0 0.40625 0.10156 0.73047 0.3125 0.96875 0.21875 0.23047 0.50781 0.34375 0.875 0.34375 0.20703 0 0.39844-0.023437 0.57812-0.078125 0.1875-0.0625 0.375-0.16016 0.5625-0.29688z"/>
  </symbol>
  <symbol id="c" overflow="visible">
   <path d="m2.6875-2.1719c-0.085938-0.039063-0.16797-0.070313-0.25-0.09375-0.085938-0.019531-0.16797-0.03125-0.25-0.03125-0.25 0-0.44531 0.085937-0.57812 0.25-0.125 0.15625-0.1875 0.38281-0.1875 0.67188v1.375h-0.96875v-2.9844h0.96875v0.48438c0.11328-0.19531 0.25-0.33594 0.40625-0.42188 0.16406-0.09375 0.35938-0.14062 0.57812-0.14062h0.10938c0.039063 0 0.09375 0.007812 0.15625 0.015625z"/>
  </symbol>
  <symbol id="b" overflow="visible">
   <path d="m3.4375-1.5v0.26562h-2.2344c0.03125 0.23047 0.11328 0.40234 0.25 0.51562 0.13281 0.10547 0.32812 0.15625 0.57812 0.15625 0.20703 0 0.41406-0.023438 0.625-0.078125 0.20703-0.0625 0.42188-0.15625 0.64062-0.28125v0.73438c-0.21875 0.09375-0.44531 0.16406-0.67188 0.20312-0.23047 0.039062-0.45312 0.0625-0.67188 0.0625-0.54297 0-0.96484-0.13281-1.2656-0.40625-0.30469-0.28125-0.45312-0.67188-0.45312-1.1719 0-0.47656 0.14453-0.85938 0.4375-1.1406 0.30078-0.28125 0.70703-0.42188 1.2188-0.42188 0.46875 0 0.84375 0.14062 1.125 0.42188s0.42188 0.66406 0.42188 1.1406zm-0.96875-0.32812c0-0.17578-0.058594-0.31641-0.17188-0.42188-0.10547-0.11328-0.24219-0.17188-0.40625-0.17188-0.1875 0-0.33984 0.054687-0.45312 0.15625-0.11719 0.10547-0.1875 0.25-0.21875 0.4375z"/>
  </symbol>
  <symbol id="j" overflow="visible">
   <path d="m1.7969-1.3438c-0.19922 0-0.35156 0.039062-0.45312 0.10938-0.09375 0.0625-0.14062 0.16406-0.14062 0.29688 0 0.11719 0.035156 0.21094 0.10938 0.28125 0.082031 0.0625 0.19531 0.09375 0.34375 0.09375 0.17578 0 0.32812-0.0625 0.45312-0.1875s0.1875-0.28516 0.1875-0.48438v-0.10938zm1.4688-0.35938v1.7031h-0.96875v-0.4375c-0.125 0.17969-0.27344 0.30859-0.4375 0.39062-0.15625 0.082031-0.35156 0.125-0.57812 0.125-0.3125 0-0.57031-0.085938-0.76562-0.26562-0.1875-0.1875-0.28125-0.42188-0.28125-0.70312 0-0.35156 0.11719-0.61328 0.35938-0.78125 0.23828-0.16406 0.61719-0.25 1.1406-0.25h0.5625v-0.0625c0-0.15625-0.0625-0.26562-0.1875-0.32812-0.11719-0.070312-0.29688-0.10938-0.54688-0.10938-0.21094 0-0.40234 0.023437-0.57812 0.0625-0.17969 0.042969-0.33984 0.10156-0.48438 0.17188v-0.71875c0.19531-0.050781 0.39844-0.085938 0.60938-0.10938 0.20703-0.03125 0.41406-0.046875 0.625-0.046875 0.53906 0 0.92969 0.10938 1.1719 0.32812 0.23828 0.21094 0.35938 0.55469 0.35938 1.0312z"/>
  </symbol>
  <symbol id="a" overflow="visible">
   <path d="m1.5-3.8438v0.85938h0.98438v0.67188h-0.98438v1.2812c0 0.13672 0.023438 0.23047 0.078125 0.28125 0.0625 0.042969 0.17578 0.0625 0.34375 0.0625h0.48438v0.6875h-0.8125c-0.38672 0-0.65625-0.078125-0.8125-0.23438s-0.23438-0.42188-0.23438-0.79688v-1.2812h-0.46875v-0.67188h0.46875v-0.85938z"/>
  </symbol>
  <symbol id="i" overflow="visible">
   <path d="m2.5-2.5469v-1.6094h0.95312v4.1562h-0.95312v-0.4375c-0.13672 0.17969-0.28125 0.30859-0.4375 0.39062-0.15625 0.082031-0.33984 0.125-0.54688 0.125-0.375 0-0.68359-0.14453-0.92188-0.4375-0.23047-0.28906-0.34375-0.67188-0.34375-1.1406 0-0.45703 0.11328-0.83203 0.34375-1.125 0.23828-0.28906 0.54688-0.4375 0.92188-0.4375 0.19531 0 0.375 0.042969 0.53125 0.125 0.16406 0.085938 0.31641 0.21484 0.45312 0.39062zm-0.64062 1.9375c0.20703 0 0.36328-0.070313 0.46875-0.21875 0.11328-0.15625 0.17188-0.37891 0.17188-0.67188 0-0.28125-0.058594-0.49219-0.17188-0.64062-0.10547-0.15625-0.26172-0.23438-0.46875-0.23438-0.19922 0-0.35547 0.078125-0.46875 0.23438-0.10547 0.14844-0.15625 0.35938-0.15625 0.64062 0 0.29297 0.050781 0.51562 0.15625 0.67188 0.11328 0.14844 0.26953 0.21875 0.46875 0.21875z"/>
  </symbol>
  <symbol id="n" overflow="visible">
   <path d="m2.0469-0.60938c0.20703 0 0.36328-0.070313 0.46875-0.21875 0.11328-0.15625 0.17188-0.37891 0.17188-0.67188 0-0.28125-0.058594-0.49219-0.17188-0.64062-0.10547-0.15625-0.26172-0.23438-0.46875-0.23438-0.19922 0-0.35547 0.078125-0.46875 0.23438-0.10547 0.14844-0.15625 0.35938-0.15625 0.64062 0 0.29297 0.050781 0.51562 0.15625 0.67188 0.11328 0.14844 0.26953 0.21875 0.46875 0.21875zm-0.625-1.9375c0.125-0.17578 0.26562-0.30469 0.42188-0.39062 0.16406-0.082031 0.35156-0.125 0.5625-0.125 0.36328 0 0.66406 0.14844 0.90625 0.4375 0.23828 0.29297 0.35938 0.66797 0.35938 1.125 0 0.46875-0.12109 0.85156-0.35938 1.1406-0.24219 0.29297-0.54297 0.4375-0.90625 0.4375-0.21094 0-0.39844-0.042969-0.5625-0.125-0.15625-0.082031-0.29688-0.21094-0.42188-0.39062v0.4375h-0.96875v-4.1562h0.96875z"/>
  </symbol>
  <symbol id="m" overflow="visible">
   <path d="m0.0625-2.9844h0.95312l0.8125 2.0156 0.6875-2.0156h0.95312l-1.2656 3.2656c-0.125 0.33203-0.27344 0.56641-0.4375 0.70312-0.16797 0.13281-0.39062 0.20312-0.67188 0.20312h-0.54688v-0.64062h0.29688c0.16406 0 0.28516-0.027344 0.35938-0.078125 0.070313-0.054688 0.12891-0.14062 0.17188-0.26562l0.03125-0.09375z"/>
  </symbol>
  <symbol id="h" overflow="visible">
   <path d="m3.4688-1.8281v1.8281h-0.96875v-1.3906c0-0.25781-0.007812-0.4375-0.015625-0.53125-0.011719-0.10156-0.03125-0.17578-0.0625-0.21875-0.03125-0.0625-0.085937-0.10938-0.15625-0.14062-0.0625-0.039062-0.13281-0.0625-0.20312-0.0625-0.21094 0-0.37109 0.078125-0.48438 0.23438-0.10547 0.15625-0.15625 0.37109-0.15625 0.64062v1.4688h-0.96875v-4.1562h0.96875v1.6094c0.13281-0.17578 0.28516-0.30469 0.45312-0.39062 0.16406-0.082031 0.34375-0.125 0.53125-0.125 0.34375 0 0.60156 0.10938 0.78125 0.32812 0.1875 0.21094 0.28125 0.51172 0.28125 0.90625z"/>
  </symbol>
  <symbol id="g" overflow="visible">
   <path d="m3.4688-1.8281v1.8281h-0.96875v-1.3906c0-0.25781-0.007812-0.4375-0.015625-0.53125-0.011719-0.10156-0.03125-0.17578-0.0625-0.21875-0.03125-0.0625-0.085937-0.10938-0.15625-0.14062-0.0625-0.039062-0.13281-0.0625-0.20312-0.0625-0.21094 0-0.37109 0.078125-0.48438 0.23438-0.10547 0.15625-0.15625 0.37109-0.15625 0.64062v1.4688h-0.96875v-2.9844h0.96875v0.4375c0.13281-0.17578 0.28516-0.30469 0.45312-0.39062 0.16406-0.082031 0.34375-0.125 0.53125-0.125 0.34375 0 0.60156 0.10938 0.78125 0.32812 0.1875 0.21094 0.28125 0.51172 0.28125 0.90625z"/>
  </symbol>
  <symbol id="f" overflow="visible">
   <path d="m0.42188-1.1719v-1.8125h0.96875v0.29688 0.60938 0.48438c0 0.24219 0.003906 0.41797 0.015625 0.53125 0.007812 0.10547 0.03125 0.17969 0.0625 0.21875 0.039062 0.0625 0.09375 0.11719 0.15625 0.15625 0.0625 0.03125 0.13281 0.046875 0.21875 0.046875 0.19531 0 0.35156-0.078125 0.46875-0.23438 0.11328-0.15625 0.17188-0.36719 0.17188-0.64062v-1.4688h0.95312v2.9844h-0.95312v-0.4375c-0.14844 0.17969-0.30469 0.30859-0.46875 0.39062-0.15625 0.082031-0.33594 0.125-0.53125 0.125-0.34375 0-0.60938-0.10156-0.79688-0.3125-0.17969-0.21875-0.26562-0.53125-0.26562-0.9375z"/>
  </symbol>
  <symbol id="k" overflow="visible">
   <path d="m0.45312-2.9844h0.96875v2.9844h-0.96875zm0-1.1719h0.96875v0.78125h-0.96875z"/>
  </symbol>
  <symbol id="e" overflow="visible">
   <path d="m2.7969-2.8906v0.71875c-0.21094-0.082031-0.40625-0.14453-0.59375-0.1875-0.1875-0.039063-0.37109-0.0625-0.54688-0.0625-0.17969 0-0.3125 0.023437-0.40625 0.0625-0.085938 0.042969-0.125 0.10938-0.125 0.20312 0 0.085938 0.03125 0.14844 0.09375 0.1875 0.070312 0.042969 0.19531 0.074219 0.375 0.09375l0.15625 0.015625c0.48828 0.0625 0.81641 0.16797 0.98438 0.3125 0.17578 0.13672 0.26562 0.35938 0.26562 0.67188s-0.12109 0.55469-0.35938 0.71875c-0.23047 0.15625-0.57812 0.23438-1.0469 0.23438-0.19922 0-0.40625-0.015625-0.625-0.046875-0.21094-0.03125-0.42188-0.078125-0.64062-0.14062v-0.71875c0.1875 0.085937 0.37891 0.15234 0.57812 0.20312 0.20703 0.042969 0.41406 0.0625 0.625 0.0625 0.1875 0 0.32812-0.023438 0.42188-0.078125 0.09375-0.050781 0.14062-0.125 0.14062-0.21875s-0.039062-0.16016-0.10938-0.20312c-0.0625-0.039062-0.1875-0.070312-0.375-0.09375l-0.17188-0.015625c-0.42969-0.050781-0.73047-0.14844-0.90625-0.29688-0.16797-0.14453-0.25-0.36328-0.25-0.65625 0-0.32031 0.10938-0.55469 0.32812-0.70312 0.21875-0.15625 0.55078-0.23438 1-0.23438 0.17578 0 0.35938 0.015625 0.54688 0.046875 0.19531 0.023437 0.41016 0.0625 0.64062 0.125z"/>
  </symbol>
  <symbol id="u" overflow="visible">
   <path d="m0.5-3.9844h1.0312v3.9844h-1.0312z"/>
  </symbol>
  <symbol id="t" overflow="visible">
   <path d="m2.4219-4.1562v0.625h-0.51562c-0.13672 0-0.23438 0.027344-0.29688 0.078125-0.054687 0.054687-0.078125 0.13672-0.078125 0.25v0.21875h0.82812v0.67188h-0.82812v2.3125h-0.95312v-2.3125h-0.46875v-0.67188h0.46875v-0.21875c0-0.32031 0.085937-0.5625 0.26562-0.71875 0.1875-0.15625 0.47266-0.23438 0.85938-0.23438z"/>
  </symbol>
  <symbol id="d" overflow="visible">
   <path d="m1.875-2.375c-0.21094 0-0.37109 0.078125-0.48438 0.23438-0.10547 0.14844-0.15625 0.35938-0.15625 0.64062 0 0.29297 0.050781 0.51562 0.15625 0.67188 0.11328 0.14844 0.27344 0.21875 0.48438 0.21875 0.20703 0 0.36719-0.070313 0.48438-0.21875 0.11328-0.15625 0.17188-0.37891 0.17188-0.67188 0-0.28125-0.058594-0.49219-0.17188-0.64062-0.11719-0.15625-0.27734-0.23438-0.48438-0.23438zm0-0.6875c0.51953 0 0.92188 0.14062 1.2031 0.42188 0.28906 0.27344 0.4375 0.65234 0.4375 1.1406 0 0.5-0.14844 0.89062-0.4375 1.1719-0.28125 0.27344-0.68359 0.40625-1.2031 0.40625-0.51172 0-0.91406-0.13281-1.2031-0.40625-0.29297-0.28125-0.4375-0.67188-0.4375-1.1719 0-0.48828 0.14453-0.86719 0.4375-1.1406 0.28906-0.28125 0.69141-0.42188 1.2031-0.42188z"/>
  </symbol>
  <symbol id="s" overflow="visible">
   <path d="m3.2344-2.5c0.11328-0.17578 0.25391-0.3125 0.42188-0.40625 0.16406-0.10156 0.35156-0.15625 0.5625-0.15625 0.33203 0 0.58594 0.10938 0.76562 0.32812 0.1875 0.21094 0.28125 0.51172 0.28125 0.90625v1.8281h-0.96875v-1.5625c0.007813-0.019531 0.015625-0.039062 0.015625-0.0625v-0.10938c0-0.21875-0.03125-0.375-0.09375-0.46875s-0.16406-0.14062-0.29688-0.14062c-0.1875 0-0.33594 0.078125-0.4375 0.23438-0.09375 0.14844-0.14062 0.35938-0.14062 0.64062v1.4688h-0.96875v-1.5625c0-0.33203-0.03125-0.54688-0.09375-0.64062-0.054688-0.09375-0.15234-0.14062-0.29688-0.14062-0.17969 0-0.32031 0.078125-0.42188 0.23438-0.09375 0.14844-0.14062 0.35938-0.14062 0.64062v1.4688h-0.96875v-2.9844h0.96875v0.4375c0.11328-0.17578 0.24219-0.30469 0.39062-0.39062 0.15625-0.082031 0.32812-0.125 0.51562-0.125 0.20703 0 0.39062 0.054688 0.54688 0.15625 0.15625 0.09375 0.27344 0.23047 0.35938 0.40625z"/>
  </symbol>
  <symbol id="r" overflow="visible">
   <path d="m0.5-3.9844h1.1562l1.4375 2.7344v-2.7344h0.98438v3.9844h-1.1562l-1.4375-2.7344v2.7344h-0.98438z"/>
  </symbol>
  <symbol id="q" overflow="visible">
   <path d="m0.5-3.9844h1.7031c0.50781 0 0.89844 0.11719 1.1719 0.34375 0.26953 0.21875 0.40625 0.53906 0.40625 0.95312 0 0.41797-0.13672 0.74219-0.40625 0.96875-0.27344 0.21875-0.66406 0.32812-1.1719 0.32812h-0.67188v1.3906h-1.0312zm1.0312 0.75v1.1094h0.5625c0.19531 0 0.34766-0.046875 0.45312-0.14062 0.11328-0.10156 0.17188-0.24219 0.17188-0.42188 0-0.17578-0.058594-0.3125-0.17188-0.40625-0.10547-0.09375-0.25781-0.14062-0.45312-0.14062z"/>
  </symbol>
  <symbol id="p" overflow="visible">
   <path d="m0.45312-2.9844h0.96875v2.9375c0 0.39453-0.10156 0.69531-0.29688 0.90625-0.1875 0.21875-0.46484 0.32812-0.82812 0.32812h-0.48438v-0.64062h0.17188c0.17578 0 0.29688-0.042969 0.35938-0.125 0.070312-0.074219 0.10938-0.23047 0.10938-0.46875zm0-1.1719h0.96875v0.78125h-0.96875z"/>
  </symbol>
  <symbol id="o" overflow="visible">
   <path d="m2.875-2.8906v0.76562c-0.125-0.082031-0.25781-0.14453-0.39062-0.1875-0.13672-0.039062-0.27344-0.0625-0.40625-0.0625-0.27344 0-0.48047 0.078125-0.625 0.23438-0.14844 0.15625-0.21875 0.37109-0.21875 0.64062 0 0.28125 0.070313 0.5 0.21875 0.65625 0.14453 0.15625 0.35156 0.23438 0.625 0.23438 0.14453 0 0.28516-0.019531 0.42188-0.0625 0.13281-0.039063 0.25781-0.10938 0.375-0.20312v0.78125c-0.14844 0.0625-0.29688 0.10156-0.45312 0.125-0.15625 0.03125-0.3125 0.046875-0.46875 0.046875-0.54297 0-0.96484-0.13281-1.2656-0.40625-0.30469-0.28125-0.45312-0.67188-0.45312-1.1719 0-0.48828 0.14844-0.86719 0.45312-1.1406 0.30078-0.28125 0.72266-0.42188 1.2656-0.42188 0.15625 0 0.3125 0.015625 0.46875 0.046875 0.15625 0.023437 0.30469 0.0625 0.45312 0.125z"/>
  </symbol>
 </defs>
 <g>
  <path d="m508.8 159.57c-0.55078-0.55078-1.1055-1.0938-1.668-1.625-9.3477-8.8711-20.473-13.094-32.164-12.215-3.6836 0.28906-7.3125 1.0664-10.789 2.3125-4.0625-14.359-11.75-27.434-22.32-37.969-0.55078-0.55078-1.1055-1.0898-1.6641-1.6211-9.3477-8.8711-20.473-13.094-32.16-12.215l-0.003906 0.003907c-10.629 1.0703-20.559 5.7852-28.113 13.34-7.5547 7.5508-12.27 17.484-13.344 28.113-0.18359 2.4609-0.13672 4.9297 0.14062 7.3789-10.668-4.2461-22.504-4.5234-33.359-0.77344 0.20703-2.1953 0.22656-4.4062 0.0625-6.6055-1.0742-10.629-5.7891-20.562-13.344-28.113-7.5547-7.5547-17.484-12.27-28.113-13.34-11.699-0.88281-22.816 3.3438-32.164 12.215-0.55859 0.53125-1.1133 1.0703-1.6641 1.6211v-0.003906c-10.57 10.535-18.254 23.609-22.316 37.969-3.4805-1.2461-7.1094-2.0234-10.793-2.3125-11.699-0.88281-22.816 3.3438-32.16 12.211-0.5625 0.53125-1.1172 1.0742-1.668 1.6211v0.003906c-21.285 21.18-30.121 51.852-23.363 81.105 0.41797 1.8477 1.8594 3.2891 3.707 3.707 6.4297 1.4688 13.004 2.2109 19.598 2.2109 23.09 0.003906 45.227-9.2031 61.508-25.574 0.55078-0.55078 1.0938-1.1055 1.6211-1.6641 6.1094-6.1914 10.215-14.078 11.777-22.633 0.60938-0.054688 1.2148-0.11719 1.8203-0.1875 5.5234 11.648 10.203 29.562 12.438 56.914l-27.367 0.003907-1.4531 2.2617c-19.172 29.41-29.746 63.59-30.531 98.688-0.78516 35.102 8.25 69.719 26.086 99.957 3.4258 5.8711 10.348 9.5156 18.055 9.5156l169.81 0.003906c7.7109 0 14.629-3.6484 18.055-9.5156v-0.003906c17.836-30.238 26.871-64.855 26.086-99.957-0.78516-35.098-11.359-69.277-30.531-98.688l-1.4531-2.2617h-27.363c2.2344-27.355 6.9102-45.273 12.438-56.918 0.60547 0.070312 1.2109 0.14062 1.8203 0.19531h-0.003906c1.5625 8.5508 5.668 16.434 11.773 22.621 0.53125 0.5625 1.0742 1.1172 1.625 1.668 16.281 16.371 38.418 25.578 61.508 25.578 6.5938-0.003906 13.168-0.74609 19.598-2.2109 1.8477-0.42187 3.2891-1.8633 3.7109-3.7109 6.7539-29.254-2.0781-59.926-23.363-81.102zm-124.3-40.406c0.0625 0.070313 0.10547 0.14453 0.17188 0.21094l29.422 29.422c0.92188 0.93359 2.1758 1.4609 3.4883 1.4648 1.3125 0.003906 2.5703-0.51562 3.5-1.4414 0.92578-0.92578 1.4453-2.1875 1.4414-3.5-0.007813-1.3086-0.53516-2.5664-1.4688-3.4844l-29.355-29.355c5.6289-4.0938 12.391-6.3438 19.348-6.4414 7.4297 0 15.223 2.7656 22.371 9.5508 0.49609 0.47266 0.99219 0.95312 1.4805 1.4453 18.098 18.004 26.102 43.809 21.363 68.891-24.547 4.6367-49.816-2.9258-67.777-20.281-2.2578-4.957-5.5273-9.3867-9.5977-13.008-5.2656-12.121-1.6602-24.672 5.6133-33.473zm-35.492 130.48c-21.086-14.387-33.676-38.289-33.605-63.816 0-0.69141 0.007812-1.3789 0.027344-2.0664 0.51953-19.859 14.426-30.016 28.66-31.906v39.652l-0.003906-0.003906c0 2.7188 2.2031 4.9219 4.9219 4.9219s4.9219-2.2031 4.9219-4.9219v-39.652c14.234 1.8906 28.137 12.051 28.66 31.91 0.019531 0.6875 0.027344 1.375 0.027344 2.0664h-0.003906c0.070312 25.527-12.52 49.43-33.605 63.816zm-83.914-132.61c0.48828-0.48828 0.98438-0.96875 1.4805-1.4414 14.219-13.488 30.969-11.094 42.363-2.6445l-28.887 28.887c-0.93359 0.91797-1.4609 2.1758-1.4648 3.4844-0.007813 1.3125 0.51172 2.5742 1.4375 3.5 0.92969 0.92578 2.1875 1.4453 3.5 1.4414 1.3125-0.003907 2.5664-0.53125 3.4883-1.4648l29-29c6.4688 8.1875 9.7812 19.402 6.0117 30.484-0.79688 0.58984-1.5781 1.1953-2.3281 1.8438h-0.003907c-5.1211 4.3945-9.0234 10.039-11.328 16.383-17.758 15.363-41.559 21.777-64.633 17.418-4.7383-25.082 3.2656-50.887 21.363-68.891zm-17.969 95.539c-0.47266 0.49609-0.94922 0.99219-1.4375 1.4766l-0.003906 0.003907c-18 18.102-43.805 26.102-68.891 21.363-4.7383-25.086 3.2656-50.891 21.363-68.891 0.48828-0.48828 0.98047-0.96875 1.4805-1.4414 11.047-10.484 23.617-11.367 34.023-7.2812-0.58594 3.6445-0.9375 7.3242-1.0547 11.016l-26.898 26.895c-0.93359 0.92188-1.4609 2.1758-1.4648 3.4883s0.51172 2.5703 1.4414 3.4961c0.92578 0.92969 2.1836 1.4492 3.4961 1.4453 1.3125-0.007812 2.5664-0.53516 3.4883-1.4688l20.535-20.535c0.36719 3.0391 0.89062 6.0547 1.5664 9.0391 0.41797 1.8477 1.8594 3.2891 3.707 3.7109 5.7109 1.3008 11.535 2.0312 17.391 2.1797-1.4844 5.8555-4.5039 11.207-8.7461 15.508zm30.676-17.766c9.9023-2.3203 19.32-6.3672 27.82-11.957-0.007812 0.21875-0.027344 0.42969-0.03125 0.64844-0.019531 0.77344-0.03125 1.5469-0.03125 2.3242v0.003906c-0.074219 26.238 11.734 51.098 32.117 67.621h-47.52c-1.9805-24.727-6.0977-44.273-12.355-58.641zm191.45 163.86c-0.085938 31.902-8.6406 63.211-24.789 90.73-1.6211 2.7734-5.4609 4.6367-9.5547 4.6367h-169.81c-4.0938 0-7.9336-1.8633-9.5547-4.6367-16.691-28.277-25.262-60.613-24.77-93.445 0.49219-32.832 10.031-64.895 27.566-92.656h183.33c17.938 28.582 27.496 61.625 27.586 95.371zm-59.41-105.21h-49.496c20.383-16.523 32.191-41.383 32.117-67.621 0-0.77734-0.011719-1.5508-0.03125-2.3242-0.019532-0.67578-0.054688-1.3438-0.097657-2.0078h0.003907c9.0156 6.2969 19.148 10.816 29.855 13.316-6.2422 14.336-10.359 33.883-12.352 58.637zm113.36-18.031c-25.086 4.7383-50.887-3.2656-68.891-21.363-0.48828-0.48828-0.96875-0.98047-1.4414-1.4805-4.2422-4.2969-7.2578-9.6523-8.7422-15.504 5.8555-0.14844 11.68-0.87891 17.391-2.1797 1.8477-0.42188 3.2891-1.8633 3.707-3.707 0.67969-2.9844 1.1992-6.0039 1.5664-9.043l20.535 20.535c1.9258 1.8984 5.0234 1.8906 6.9375-0.023437 1.9102-1.9141 1.9219-5.0117 0.023437-6.9375l-26.898-26.895c-0.11719-3.6875-0.46875-7.3672-1.0547-11.008 3.707-1.4844 7.6602-2.2578 11.652-2.2812 7.4297 0 15.223 2.7656 22.375 9.5508 0.49609 0.47266 0.99219 0.95312 1.4805 1.4414l-0.003906 0.003906c18.102 18.004 26.102 43.805 21.363 68.891z"/>
  <use x="70" y="576.40625" xlink:href="#l"/>
  <use x="74.011719" y="576.40625" xlink:href="#c"/>
  <use x="76.710938" y="576.40625" xlink:href="#b"/>
  <use x="80.417969" y="576.40625" xlink:href="#j"/>
  <use x="84.109375" y="576.40625" xlink:href="#a"/>
  <use x="86.722656" y="576.40625" xlink:href="#b"/>
  <use x="90.433594" y="576.40625" xlink:href="#i"/>
  <use x="96.25" y="576.40625" xlink:href="#n"/>
  <use x="100.167969" y="576.40625" xlink:href="#m"/>
  <use x="105.636719" y="576.40625" xlink:href="#l"/>
  <use x="109.648438" y="576.40625" xlink:href="#h"/>
  <use x="113.542969" y="576.40625" xlink:href="#j"/>
  <use x="117.230469" y="576.40625" xlink:href="#g"/>
  <use x="121.125" y="576.40625" xlink:href="#f"/>
  <use x="125.019531" y="576.40625" xlink:href="#a"/>
  <use x="129.535156" y="576.40625" xlink:href="#k"/>
  <use x="131.410156" y="576.40625" xlink:href="#e"/>
  <use x="136.570312" y="576.40625" xlink:href="#u"/>
  <use x="138.605469" y="576.40625" xlink:href="#g"/>
  <use x="142.5" y="576.40625" xlink:href="#i"/>
  <use x="146.414062" y="576.40625" xlink:href="#f"/>
  <use x="150.304688" y="576.40625" xlink:href="#e"/>
  <use x="153.5625" y="576.40625" xlink:href="#a"/>
  <use x="156.175781" y="576.40625" xlink:href="#c"/>
  <use x="158.871094" y="576.40625" xlink:href="#k"/>
  <use x="160.746094" y="576.40625" xlink:href="#b"/>
  <use x="164.457031" y="576.40625" xlink:href="#e"/>
  <use x="70" y="581.875" xlink:href="#t"/>
  <use x="72.378906" y="581.875" xlink:href="#c"/>
  <use x="75.078125" y="581.875" xlink:href="#d"/>
  <use x="78.832031" y="581.875" xlink:href="#s"/>
  <use x="86.4375" y="581.875" xlink:href="#a"/>
  <use x="89.050781" y="581.875" xlink:href="#h"/>
  <use x="92.941406" y="581.875" xlink:href="#b"/>
  <use x="98.554688" y="581.875" xlink:href="#r"/>
  <use x="103.132812" y="581.875" xlink:href="#d"/>
  <use x="106.890625" y="581.875" xlink:href="#f"/>
  <use x="110.785156" y="581.875" xlink:href="#g"/>
  <use x="116.582031" y="581.875" xlink:href="#q"/>
  <use x="120.589844" y="581.875" xlink:href="#c"/>
  <use x="123.285156" y="581.875" xlink:href="#d"/>
  <use x="127.042969" y="581.875" xlink:href="#p"/>
  <use x="128.917969" y="581.875" xlink:href="#b"/>
  <use x="132.625" y="581.875" xlink:href="#o"/>
  <use x="135.867188" y="581.875" xlink:href="#a"/>
 </g>
</svg>
